<mxfile host="app.diagrams.net" agent="Mozilla/5.0 (X11; Linux x86_64) AppleWebKit/537.36 (KHTML, like Gecko) Chrome/137.0.0.0 Safari/537.36" version="28.0.6">
  <diagram name="Page-1" id="FVG58N9kgJdOwaL1TY9Y">
    <mxGraphModel dx="2303" dy="800" grid="1" gridSize="10" guides="1" tooltips="1" connect="1" arrows="1" fold="1" page="1" pageScale="1" pageWidth="850" pageHeight="1100" math="0" shadow="0">
      <root>
        <mxCell id="0" />
        <mxCell id="1" parent="0" />
        <mxCell id="OOJSj3EKYJAeltkpP3Uc-1" value="ทบทวนสัญลักษณ์" style="swimlane;fontFamily=Sarabun;fontSource=https%3A%2F%2Ffonts.googleapis.com%2Fcss%3Ffamily%3DSarabun;" vertex="1" parent="1">
          <mxGeometry x="-720" y="20" width="640" height="290" as="geometry" />
        </mxCell>
        <mxCell id="OOJSj3EKYJAeltkpP3Uc-2" value="&lt;font data-font-src=&quot;https://fonts.googleapis.com/css?family=Sarabun&quot; face=&quot;Sarabun&quot;&gt;เริ่มต้น&lt;/font&gt;" style="ellipse;whiteSpace=wrap;html=1;" vertex="1" parent="OOJSj3EKYJAeltkpP3Uc-1">
          <mxGeometry x="20" y="40" width="130" height="30" as="geometry" />
        </mxCell>
        <mxCell id="OOJSj3EKYJAeltkpP3Uc-3" value="" style="endArrow=classic;html=1;rounded=0;" edge="1" parent="OOJSj3EKYJAeltkpP3Uc-1">
          <mxGeometry width="50" height="50" relative="1" as="geometry">
            <mxPoint x="84.5" y="70" as="sourcePoint" />
            <mxPoint x="84.5" y="120" as="targetPoint" />
          </mxGeometry>
        </mxCell>
        <mxCell id="OOJSj3EKYJAeltkpP3Uc-4" value="&lt;font face=&quot;Sarabun&quot;&gt;สิ้นสุด&lt;/font&gt;" style="ellipse;whiteSpace=wrap;html=1;" vertex="1" parent="OOJSj3EKYJAeltkpP3Uc-1">
          <mxGeometry x="150" y="90" width="130" height="30" as="geometry" />
        </mxCell>
        <mxCell id="OOJSj3EKYJAeltkpP3Uc-5" value="" style="endArrow=classic;html=1;rounded=0;" edge="1" parent="OOJSj3EKYJAeltkpP3Uc-1">
          <mxGeometry width="50" height="50" relative="1" as="geometry">
            <mxPoint x="214.5" y="40" as="sourcePoint" />
            <mxPoint x="214.5" y="90" as="targetPoint" />
          </mxGeometry>
        </mxCell>
        <mxCell id="OOJSj3EKYJAeltkpP3Uc-6" value="กระบวนการ" style="rounded=0;whiteSpace=wrap;html=1;fontFamily=Sarabun;fontSource=https%3A%2F%2Ffonts.googleapis.com%2Fcss%3Ffamily%3DSarabun;" vertex="1" parent="OOJSj3EKYJAeltkpP3Uc-1">
          <mxGeometry x="320" y="70" width="120" height="30" as="geometry" />
        </mxCell>
        <mxCell id="OOJSj3EKYJAeltkpP3Uc-7" value="" style="endArrow=classic;html=1;rounded=0;" edge="1" parent="OOJSj3EKYJAeltkpP3Uc-1">
          <mxGeometry width="50" height="50" relative="1" as="geometry">
            <mxPoint x="379" y="40" as="sourcePoint" />
            <mxPoint x="379.5" y="70" as="targetPoint" />
          </mxGeometry>
        </mxCell>
        <mxCell id="OOJSj3EKYJAeltkpP3Uc-8" value="" style="endArrow=classic;html=1;rounded=0;" edge="1" parent="OOJSj3EKYJAeltkpP3Uc-1">
          <mxGeometry width="50" height="50" relative="1" as="geometry">
            <mxPoint x="379.75" y="100" as="sourcePoint" />
            <mxPoint x="380.25" y="130" as="targetPoint" />
          </mxGeometry>
        </mxCell>
        <mxCell id="OOJSj3EKYJAeltkpP3Uc-9" value="ประโยคเงื่อนไข" style="rhombus;whiteSpace=wrap;html=1;fontFamily=Sarabun;fontSource=https%3A%2F%2Ffonts.googleapis.com%2Fcss%3Ffamily%3DSarabun;" vertex="1" parent="OOJSj3EKYJAeltkpP3Uc-1">
          <mxGeometry x="490" y="60" width="100" height="60" as="geometry" />
        </mxCell>
        <mxCell id="OOJSj3EKYJAeltkpP3Uc-10" value="" style="endArrow=classic;html=1;rounded=0;" edge="1" parent="OOJSj3EKYJAeltkpP3Uc-1">
          <mxGeometry width="50" height="50" relative="1" as="geometry">
            <mxPoint x="539.71" y="30" as="sourcePoint" />
            <mxPoint x="540.21" y="60" as="targetPoint" />
          </mxGeometry>
        </mxCell>
        <mxCell id="OOJSj3EKYJAeltkpP3Uc-11" value="" style="endArrow=classic;html=1;rounded=0;" edge="1" parent="OOJSj3EKYJAeltkpP3Uc-1">
          <mxGeometry width="50" height="50" relative="1" as="geometry">
            <mxPoint x="539.71" y="120" as="sourcePoint" />
            <mxPoint x="540" y="175" as="targetPoint" />
          </mxGeometry>
        </mxCell>
        <mxCell id="OOJSj3EKYJAeltkpP3Uc-12" value="จริง" style="edgeLabel;html=1;align=center;verticalAlign=middle;resizable=0;points=[];fontFamily=Sarabun;fontSource=https%3A%2F%2Ffonts.googleapis.com%2Fcss%3Ffamily%3DSarabun;" vertex="1" connectable="0" parent="OOJSj3EKYJAeltkpP3Uc-11">
          <mxGeometry x="-0.4142" y="-1" relative="1" as="geometry">
            <mxPoint as="offset" />
          </mxGeometry>
        </mxCell>
        <mxCell id="OOJSj3EKYJAeltkpP3Uc-13" value="" style="endArrow=classic;html=1;rounded=0;exitX=1;exitY=0.5;exitDx=0;exitDy=0;" edge="1" parent="OOJSj3EKYJAeltkpP3Uc-1" source="OOJSj3EKYJAeltkpP3Uc-9">
          <mxGeometry width="50" height="50" relative="1" as="geometry">
            <mxPoint x="620" y="95" as="sourcePoint" />
            <mxPoint x="610" y="175" as="targetPoint" />
            <Array as="points">
              <mxPoint x="610" y="90" />
            </Array>
          </mxGeometry>
        </mxCell>
        <mxCell id="OOJSj3EKYJAeltkpP3Uc-14" value="&lt;font data-font-src=&quot;https://fonts.googleapis.com/css?family=Sarabun&quot; face=&quot;Sarabun&quot;&gt;เท็จ&lt;/font&gt;" style="edgeLabel;html=1;align=center;verticalAlign=middle;resizable=0;points=[];" vertex="1" connectable="0" parent="OOJSj3EKYJAeltkpP3Uc-13">
          <mxGeometry x="-0.0019" y="-2" relative="1" as="geometry">
            <mxPoint as="offset" />
          </mxGeometry>
        </mxCell>
        <mxCell id="OOJSj3EKYJAeltkpP3Uc-15" value="&lt;font data-font-src=&quot;https://fonts.googleapis.com/css?family=Sarabun&quot; face=&quot;Sarabun&quot;&gt;ฟังก์ชัน/โมดูล&lt;/font&gt;" style="shape=process;whiteSpace=wrap;html=1;backgroundOutline=1;" vertex="1" parent="OOJSj3EKYJAeltkpP3Uc-1">
          <mxGeometry x="25" y="180" width="120" height="30" as="geometry" />
        </mxCell>
        <mxCell id="OOJSj3EKYJAeltkpP3Uc-16" value="" style="endArrow=classic;html=1;rounded=0;" edge="1" parent="OOJSj3EKYJAeltkpP3Uc-1">
          <mxGeometry width="50" height="50" relative="1" as="geometry">
            <mxPoint x="84.70999999999998" y="150" as="sourcePoint" />
            <mxPoint x="85.20999999999998" y="180" as="targetPoint" />
          </mxGeometry>
        </mxCell>
        <mxCell id="OOJSj3EKYJAeltkpP3Uc-17" value="" style="endArrow=classic;html=1;rounded=0;" edge="1" parent="OOJSj3EKYJAeltkpP3Uc-1">
          <mxGeometry width="50" height="50" relative="1" as="geometry">
            <mxPoint x="84.70999999999998" y="210" as="sourcePoint" />
            <mxPoint x="85.20999999999998" y="240" as="targetPoint" />
          </mxGeometry>
        </mxCell>
        <mxCell id="OOJSj3EKYJAeltkpP3Uc-18" value="" style="strokeWidth=2;html=1;shape=mxgraph.flowchart.start_2;whiteSpace=wrap;" vertex="1" parent="OOJSj3EKYJAeltkpP3Uc-1">
          <mxGeometry x="205" y="185" width="20" height="20" as="geometry" />
        </mxCell>
        <mxCell id="OOJSj3EKYJAeltkpP3Uc-19" value="" style="endArrow=classic;html=1;rounded=0;" edge="1" parent="OOJSj3EKYJAeltkpP3Uc-1">
          <mxGeometry width="50" height="50" relative="1" as="geometry">
            <mxPoint x="214.70999999999998" y="155" as="sourcePoint" />
            <mxPoint x="215.20999999999998" y="185" as="targetPoint" />
          </mxGeometry>
        </mxCell>
        <mxCell id="OOJSj3EKYJAeltkpP3Uc-20" value="" style="endArrow=classic;html=1;rounded=0;entryX=0;entryY=0.5;entryDx=0;entryDy=0;entryPerimeter=0;" edge="1" parent="OOJSj3EKYJAeltkpP3Uc-1" target="OOJSj3EKYJAeltkpP3Uc-18">
          <mxGeometry width="50" height="50" relative="1" as="geometry">
            <mxPoint x="189.99999999999997" y="155" as="sourcePoint" />
            <mxPoint x="190.49999999999997" y="185" as="targetPoint" />
            <Array as="points">
              <mxPoint x="190" y="180" />
            </Array>
          </mxGeometry>
        </mxCell>
        <mxCell id="OOJSj3EKYJAeltkpP3Uc-21" value="" style="endArrow=classic;html=1;rounded=0;entryX=1;entryY=0.5;entryDx=0;entryDy=0;entryPerimeter=0;" edge="1" parent="OOJSj3EKYJAeltkpP3Uc-1" target="OOJSj3EKYJAeltkpP3Uc-18">
          <mxGeometry width="50" height="50" relative="1" as="geometry">
            <mxPoint x="239.99999999999997" y="155" as="sourcePoint" />
            <mxPoint x="240.49999999999997" y="185" as="targetPoint" />
            <Array as="points">
              <mxPoint x="240" y="180" />
            </Array>
          </mxGeometry>
        </mxCell>
        <mxCell id="OOJSj3EKYJAeltkpP3Uc-22" value="" style="endArrow=classic;html=1;rounded=0;" edge="1" parent="OOJSj3EKYJAeltkpP3Uc-1">
          <mxGeometry width="50" height="50" relative="1" as="geometry">
            <mxPoint x="214.70999999999998" y="205" as="sourcePoint" />
            <mxPoint x="215.20999999999998" y="235" as="targetPoint" />
          </mxGeometry>
        </mxCell>
        <mxCell id="OOJSj3EKYJAeltkpP3Uc-23" value="&lt;font data-font-src=&quot;https://fonts.googleapis.com/css?family=Sarabun&quot; face=&quot;Sarabun&quot;&gt;ตัวเชื่อม&lt;/font&gt;" style="text;html=1;align=center;verticalAlign=middle;resizable=0;points=[];autosize=1;strokeColor=none;fillColor=none;" vertex="1" parent="OOJSj3EKYJAeltkpP3Uc-1">
          <mxGeometry x="220" y="190" width="60" height="30" as="geometry" />
        </mxCell>
        <mxCell id="OOJSj3EKYJAeltkpP3Uc-24" value="" style="endArrow=classic;html=1;rounded=0;" edge="1" parent="OOJSj3EKYJAeltkpP3Uc-1">
          <mxGeometry width="50" height="50" relative="1" as="geometry">
            <mxPoint x="353.71" y="165" as="sourcePoint" />
            <mxPoint x="354.21" y="195" as="targetPoint" />
          </mxGeometry>
        </mxCell>
        <mxCell id="OOJSj3EKYJAeltkpP3Uc-25" value="" style="verticalLabelPosition=bottom;verticalAlign=top;html=1;shape=offPageConnector;rounded=0;size=0.5;" vertex="1" parent="OOJSj3EKYJAeltkpP3Uc-1">
          <mxGeometry x="339" y="195" width="30" height="30" as="geometry" />
        </mxCell>
        <mxCell id="OOJSj3EKYJAeltkpP3Uc-26" value="" style="endArrow=classic;html=1;rounded=0;" edge="1" parent="OOJSj3EKYJAeltkpP3Uc-1">
          <mxGeometry width="50" height="50" relative="1" as="geometry">
            <mxPoint x="405.71" y="195" as="sourcePoint" />
            <mxPoint x="406.21" y="225" as="targetPoint" />
          </mxGeometry>
        </mxCell>
        <mxCell id="OOJSj3EKYJAeltkpP3Uc-27" value="" style="verticalLabelPosition=bottom;verticalAlign=top;html=1;shape=offPageConnector;rounded=0;size=0.5;" vertex="1" parent="OOJSj3EKYJAeltkpP3Uc-1">
          <mxGeometry x="391" y="165" width="30" height="30" as="geometry" />
        </mxCell>
        <mxCell id="OOJSj3EKYJAeltkpP3Uc-28" value="หน้าต่อไป" style="text;html=1;align=center;verticalAlign=middle;resizable=0;points=[];autosize=1;strokeColor=none;fillColor=none;fontFamily=Sarabun;fontSource=https%3A%2F%2Ffonts.googleapis.com%2Fcss%3Ffamily%3DSarabun;" vertex="1" parent="OOJSj3EKYJAeltkpP3Uc-1">
          <mxGeometry x="345" y="220" width="70" height="30" as="geometry" />
        </mxCell>
        <mxCell id="OOJSj3EKYJAeltkpP3Uc-29" value="ก" style="text;html=1;align=center;verticalAlign=middle;resizable=0;points=[];autosize=1;strokeColor=none;fillColor=none;fontFamily=Sarabun;fontSource=https%3A%2F%2Ffonts.googleapis.com%2Fcss%3Ffamily%3DSarabun;" vertex="1" parent="OOJSj3EKYJAeltkpP3Uc-1">
          <mxGeometry x="339" y="190" width="30" height="30" as="geometry" />
        </mxCell>
        <mxCell id="OOJSj3EKYJAeltkpP3Uc-30" value="ก" style="text;html=1;align=center;verticalAlign=middle;resizable=0;points=[];autosize=1;strokeColor=none;fillColor=none;fontFamily=Sarabun;fontSource=https%3A%2F%2Ffonts.googleapis.com%2Fcss%3Ffamily%3DSarabun;" vertex="1" parent="OOJSj3EKYJAeltkpP3Uc-1">
          <mxGeometry x="391" y="160" width="30" height="30" as="geometry" />
        </mxCell>
        <mxCell id="OOJSj3EKYJAeltkpP3Uc-31" value="แสดงผล/รับค่า" style="shape=parallelogram;perimeter=parallelogramPerimeter;whiteSpace=wrap;html=1;fixedSize=1;fontFamily=Sarabun;fontSource=https%3A%2F%2Ffonts.googleapis.com%2Fcss%3Ffamily%3DSarabun;" vertex="1" parent="OOJSj3EKYJAeltkpP3Uc-1">
          <mxGeometry x="450" y="210" width="120" height="30" as="geometry" />
        </mxCell>
        <mxCell id="OOJSj3EKYJAeltkpP3Uc-32" value="" style="endArrow=classic;html=1;rounded=0;" edge="1" parent="OOJSj3EKYJAeltkpP3Uc-1">
          <mxGeometry width="50" height="50" relative="1" as="geometry">
            <mxPoint x="509.71" y="180" as="sourcePoint" />
            <mxPoint x="510.21" y="210" as="targetPoint" />
          </mxGeometry>
        </mxCell>
        <mxCell id="OOJSj3EKYJAeltkpP3Uc-33" value="" style="endArrow=classic;html=1;rounded=0;" edge="1" parent="OOJSj3EKYJAeltkpP3Uc-1">
          <mxGeometry width="50" height="50" relative="1" as="geometry">
            <mxPoint x="509.71" y="240" as="sourcePoint" />
            <mxPoint x="510.21" y="270" as="targetPoint" />
          </mxGeometry>
        </mxCell>
        <mxCell id="OOJSj3EKYJAeltkpP3Uc-34" value="แก้ไขโจทย์ปัญหา" style="swimlane;fontFamily=Sarabun;fontSource=https%3A%2F%2Ffonts.googleapis.com%2Fcss%3Ffamily%3DSarabun;" vertex="1" parent="1">
          <mxGeometry x="-710" y="620" width="1020" height="2810" as="geometry" />
        </mxCell>
        <mxCell id="OOJSj3EKYJAeltkpP3Uc-236" style="edgeStyle=orthogonalEdgeStyle;rounded=0;orthogonalLoop=1;jettySize=auto;html=1;entryX=0.5;entryY=0;entryDx=0;entryDy=0;" edge="1" parent="OOJSj3EKYJAeltkpP3Uc-34" source="OOJSj3EKYJAeltkpP3Uc-36" target="OOJSj3EKYJAeltkpP3Uc-235">
          <mxGeometry relative="1" as="geometry" />
        </mxCell>
        <mxCell id="OOJSj3EKYJAeltkpP3Uc-36" value="&lt;font style=&quot;font-size: 15px;&quot;&gt;เริ่มต้น&lt;/font&gt;" style="strokeWidth=1;html=1;shape=mxgraph.flowchart.terminator;whiteSpace=wrap;" vertex="1" parent="OOJSj3EKYJAeltkpP3Uc-34">
          <mxGeometry x="255" y="40" width="130" height="60" as="geometry" />
        </mxCell>
        <mxCell id="OOJSj3EKYJAeltkpP3Uc-37" value="" style="edgeStyle=orthogonalEdgeStyle;rounded=0;orthogonalLoop=1;jettySize=auto;html=1;" edge="1" parent="OOJSj3EKYJAeltkpP3Uc-34" source="OOJSj3EKYJAeltkpP3Uc-803" target="OOJSj3EKYJAeltkpP3Uc-59">
          <mxGeometry relative="1" as="geometry" />
        </mxCell>
        <mxCell id="OOJSj3EKYJAeltkpP3Uc-38" value="แสดงรายการสินค้าทั้งจำนวนและราคา" style="rounded=0;whiteSpace=wrap;html=1;" vertex="1" parent="OOJSj3EKYJAeltkpP3Uc-34">
          <mxGeometry x="229.25" y="300" width="180" height="60" as="geometry" />
        </mxCell>
        <mxCell id="OOJSj3EKYJAeltkpP3Uc-39" value="" style="edgeStyle=orthogonalEdgeStyle;rounded=0;orthogonalLoop=1;jettySize=auto;html=1;" edge="1" parent="OOJSj3EKYJAeltkpP3Uc-34" source="OOJSj3EKYJAeltkpP3Uc-41" target="OOJSj3EKYJAeltkpP3Uc-43">
          <mxGeometry relative="1" as="geometry" />
        </mxCell>
        <mxCell id="OOJSj3EKYJAeltkpP3Uc-40" value="" style="edgeStyle=orthogonalEdgeStyle;rounded=0;orthogonalLoop=1;jettySize=auto;html=1;" edge="1" parent="OOJSj3EKYJAeltkpP3Uc-34" source="OOJSj3EKYJAeltkpP3Uc-41" target="OOJSj3EKYJAeltkpP3Uc-46">
          <mxGeometry relative="1" as="geometry" />
        </mxCell>
        <mxCell id="OOJSj3EKYJAeltkpP3Uc-41" value="สินค้าประเภทนํ้า" style="rhombus;whiteSpace=wrap;html=1;" vertex="1" parent="OOJSj3EKYJAeltkpP3Uc-34">
          <mxGeometry x="260" y="530" width="120" height="110" as="geometry" />
        </mxCell>
        <mxCell id="OOJSj3EKYJAeltkpP3Uc-42" value="" style="edgeStyle=orthogonalEdgeStyle;rounded=0;orthogonalLoop=1;jettySize=auto;html=1;" edge="1" parent="OOJSj3EKYJAeltkpP3Uc-34" source="OOJSj3EKYJAeltkpP3Uc-43" target="OOJSj3EKYJAeltkpP3Uc-53">
          <mxGeometry relative="1" as="geometry" />
        </mxCell>
        <mxCell id="OOJSj3EKYJAeltkpP3Uc-805" style="edgeStyle=orthogonalEdgeStyle;rounded=0;orthogonalLoop=1;jettySize=auto;html=1;entryX=1;entryY=0.5;entryDx=0;entryDy=0;" edge="1" parent="OOJSj3EKYJAeltkpP3Uc-34" source="OOJSj3EKYJAeltkpP3Uc-43" target="OOJSj3EKYJAeltkpP3Uc-803">
          <mxGeometry relative="1" as="geometry">
            <Array as="points">
              <mxPoint x="520" y="400" />
            </Array>
          </mxGeometry>
        </mxCell>
        <mxCell id="OOJSj3EKYJAeltkpP3Uc-43" value="สินค้าประเภทขนม" style="rhombus;whiteSpace=wrap;html=1;" vertex="1" parent="OOJSj3EKYJAeltkpP3Uc-34">
          <mxGeometry x="460" y="530" width="120" height="110" as="geometry" />
        </mxCell>
        <mxCell id="OOJSj3EKYJAeltkpP3Uc-44" value="no" style="text;html=1;align=center;verticalAlign=middle;whiteSpace=wrap;rounded=0;" vertex="1" parent="OOJSj3EKYJAeltkpP3Uc-34">
          <mxGeometry x="385" y="560" width="60" height="30" as="geometry" />
        </mxCell>
        <mxCell id="OOJSj3EKYJAeltkpP3Uc-45" style="edgeStyle=orthogonalEdgeStyle;rounded=0;orthogonalLoop=1;jettySize=auto;html=1;entryX=0.5;entryY=0;entryDx=0;entryDy=0;" edge="1" parent="OOJSj3EKYJAeltkpP3Uc-34" source="OOJSj3EKYJAeltkpP3Uc-46" target="OOJSj3EKYJAeltkpP3Uc-76">
          <mxGeometry relative="1" as="geometry" />
        </mxCell>
        <mxCell id="OOJSj3EKYJAeltkpP3Uc-46" value="แสดงรายการสินค้าประเภทนํ้าและราคา" style="whiteSpace=wrap;html=1;" vertex="1" parent="OOJSj3EKYJAeltkpP3Uc-34">
          <mxGeometry x="260" y="680" width="120" height="60" as="geometry" />
        </mxCell>
        <mxCell id="OOJSj3EKYJAeltkpP3Uc-47" value="yes" style="text;html=1;align=center;verticalAlign=middle;whiteSpace=wrap;rounded=0;" vertex="1" parent="OOJSj3EKYJAeltkpP3Uc-34">
          <mxGeometry x="325" y="635" width="60" height="30" as="geometry" />
        </mxCell>
        <mxCell id="OOJSj3EKYJAeltkpP3Uc-48" style="edgeStyle=orthogonalEdgeStyle;rounded=0;orthogonalLoop=1;jettySize=auto;html=1;entryX=0;entryY=0.5;entryDx=0;entryDy=0;exitX=0;exitY=0.5;exitDx=0;exitDy=0;" edge="1" parent="OOJSj3EKYJAeltkpP3Uc-34" source="OOJSj3EKYJAeltkpP3Uc-50" target="OOJSj3EKYJAeltkpP3Uc-803">
          <mxGeometry relative="1" as="geometry">
            <Array as="points">
              <mxPoint x="50" y="1700" />
              <mxPoint x="50" y="400" />
            </Array>
          </mxGeometry>
        </mxCell>
        <mxCell id="OOJSj3EKYJAeltkpP3Uc-822" style="edgeStyle=orthogonalEdgeStyle;rounded=0;orthogonalLoop=1;jettySize=auto;html=1;entryX=0;entryY=0.5;entryDx=0;entryDy=0;exitX=0.5;exitY=1;exitDx=0;exitDy=0;" edge="1" parent="OOJSj3EKYJAeltkpP3Uc-34" source="OOJSj3EKYJAeltkpP3Uc-50" target="OOJSj3EKYJAeltkpP3Uc-62">
          <mxGeometry relative="1" as="geometry" />
        </mxCell>
        <mxCell id="OOJSj3EKYJAeltkpP3Uc-50" value="เลือกสินค้าประเภทนํ้าที่ต้องการ" style="rhombus;whiteSpace=wrap;html=1;" vertex="1" parent="OOJSj3EKYJAeltkpP3Uc-34">
          <mxGeometry x="261.5" y="1640" width="115" height="120" as="geometry" />
        </mxCell>
        <mxCell id="OOJSj3EKYJAeltkpP3Uc-51" value="no" style="text;html=1;align=center;verticalAlign=middle;whiteSpace=wrap;rounded=0;" vertex="1" parent="OOJSj3EKYJAeltkpP3Uc-34">
          <mxGeometry x="220" y="1660" width="60" height="30" as="geometry" />
        </mxCell>
        <mxCell id="OOJSj3EKYJAeltkpP3Uc-256" value="" style="edgeStyle=orthogonalEdgeStyle;rounded=0;orthogonalLoop=1;jettySize=auto;html=1;" edge="1" parent="OOJSj3EKYJAeltkpP3Uc-34" source="OOJSj3EKYJAeltkpP3Uc-53" target="OOJSj3EKYJAeltkpP3Uc-78">
          <mxGeometry relative="1" as="geometry" />
        </mxCell>
        <mxCell id="OOJSj3EKYJAeltkpP3Uc-53" value="แสดงรายการสินค้าประเภทขนมและราคา" style="whiteSpace=wrap;html=1;" vertex="1" parent="OOJSj3EKYJAeltkpP3Uc-34">
          <mxGeometry x="460" y="680" width="120" height="60" as="geometry" />
        </mxCell>
        <mxCell id="OOJSj3EKYJAeltkpP3Uc-54" style="edgeStyle=orthogonalEdgeStyle;rounded=0;orthogonalLoop=1;jettySize=auto;html=1;entryX=1;entryY=0.5;entryDx=0;entryDy=0;" edge="1" parent="OOJSj3EKYJAeltkpP3Uc-34" source="OOJSj3EKYJAeltkpP3Uc-56" target="OOJSj3EKYJAeltkpP3Uc-59">
          <mxGeometry relative="1" as="geometry">
            <Array as="points">
              <mxPoint x="930" y="1700" />
              <mxPoint x="930" y="470" />
            </Array>
          </mxGeometry>
        </mxCell>
        <mxCell id="OOJSj3EKYJAeltkpP3Uc-55" style="edgeStyle=orthogonalEdgeStyle;rounded=0;orthogonalLoop=1;jettySize=auto;html=1;entryX=1;entryY=0.5;entryDx=0;entryDy=0;" edge="1" parent="OOJSj3EKYJAeltkpP3Uc-34" source="OOJSj3EKYJAeltkpP3Uc-56" target="OOJSj3EKYJAeltkpP3Uc-62">
          <mxGeometry relative="1" as="geometry">
            <Array as="points">
              <mxPoint x="520" y="1780" />
            </Array>
          </mxGeometry>
        </mxCell>
        <mxCell id="OOJSj3EKYJAeltkpP3Uc-56" value="เลือกสินค้าขนมที่ต้องการ" style="rhombus;whiteSpace=wrap;html=1;" vertex="1" parent="OOJSj3EKYJAeltkpP3Uc-34">
          <mxGeometry x="464.99" y="1650" width="110" height="100" as="geometry" />
        </mxCell>
        <mxCell id="OOJSj3EKYJAeltkpP3Uc-57" value="yes" style="text;html=1;align=center;verticalAlign=middle;whiteSpace=wrap;rounded=0;" vertex="1" parent="OOJSj3EKYJAeltkpP3Uc-34">
          <mxGeometry x="520" y="640" width="60" height="30" as="geometry" />
        </mxCell>
        <mxCell id="OOJSj3EKYJAeltkpP3Uc-58" style="edgeStyle=orthogonalEdgeStyle;rounded=0;orthogonalLoop=1;jettySize=auto;html=1;entryX=0.5;entryY=0;entryDx=0;entryDy=0;" edge="1" parent="OOJSj3EKYJAeltkpP3Uc-34" source="OOJSj3EKYJAeltkpP3Uc-59" target="OOJSj3EKYJAeltkpP3Uc-41">
          <mxGeometry relative="1" as="geometry" />
        </mxCell>
        <mxCell id="OOJSj3EKYJAeltkpP3Uc-59" value="เลือกประเภทสินค้า" style="rounded=0;whiteSpace=wrap;html=1;" vertex="1" parent="OOJSj3EKYJAeltkpP3Uc-34">
          <mxGeometry x="260" y="440" width="120" height="60" as="geometry" />
        </mxCell>
        <mxCell id="OOJSj3EKYJAeltkpP3Uc-60" value="no" style="text;html=1;align=center;verticalAlign=middle;whiteSpace=wrap;rounded=0;" vertex="1" parent="OOJSj3EKYJAeltkpP3Uc-34">
          <mxGeometry x="527.88" y="1630" width="60" height="30" as="geometry" />
        </mxCell>
        <mxCell id="OOJSj3EKYJAeltkpP3Uc-61" value="" style="edgeStyle=orthogonalEdgeStyle;rounded=0;orthogonalLoop=1;jettySize=auto;html=1;" edge="1" parent="OOJSj3EKYJAeltkpP3Uc-34" source="OOJSj3EKYJAeltkpP3Uc-62" target="OOJSj3EKYJAeltkpP3Uc-65">
          <mxGeometry relative="1" as="geometry" />
        </mxCell>
        <mxCell id="OOJSj3EKYJAeltkpP3Uc-62" value="" style="ellipse;whiteSpace=wrap;html=1;aspect=fixed;" vertex="1" parent="OOJSj3EKYJAeltkpP3Uc-34">
          <mxGeometry x="397.5" y="1760" width="40" height="40" as="geometry" />
        </mxCell>
        <mxCell id="OOJSj3EKYJAeltkpP3Uc-64" style="edgeStyle=orthogonalEdgeStyle;rounded=0;orthogonalLoop=1;jettySize=auto;html=1;entryX=0;entryY=0.5;entryDx=0;entryDy=0;" edge="1" parent="OOJSj3EKYJAeltkpP3Uc-34" source="OOJSj3EKYJAeltkpP3Uc-65" target="OOJSj3EKYJAeltkpP3Uc-38">
          <mxGeometry relative="1" as="geometry">
            <Array as="points">
              <mxPoint x="20" y="1875" />
              <mxPoint x="20" y="330" />
            </Array>
          </mxGeometry>
        </mxCell>
        <mxCell id="OOJSj3EKYJAeltkpP3Uc-623" value="" style="edgeStyle=orthogonalEdgeStyle;rounded=0;orthogonalLoop=1;jettySize=auto;html=1;" edge="1" parent="OOJSj3EKYJAeltkpP3Uc-34" source="OOJSj3EKYJAeltkpP3Uc-65" target="OOJSj3EKYJAeltkpP3Uc-69">
          <mxGeometry relative="1" as="geometry" />
        </mxCell>
        <mxCell id="OOJSj3EKYJAeltkpP3Uc-65" value="ต้องการเลือกสินค้าเพิ่มหรือไม่" style="rhombus;whiteSpace=wrap;html=1;" vertex="1" parent="OOJSj3EKYJAeltkpP3Uc-34">
          <mxGeometry x="335" y="1820" width="167.5" height="110" as="geometry" />
        </mxCell>
        <mxCell id="OOJSj3EKYJAeltkpP3Uc-66" value="yes" style="text;html=1;align=center;verticalAlign=middle;whiteSpace=wrap;rounded=0;" vertex="1" parent="OOJSj3EKYJAeltkpP3Uc-34">
          <mxGeometry x="312.5" y="1750" width="60" height="30" as="geometry" />
        </mxCell>
        <mxCell id="OOJSj3EKYJAeltkpP3Uc-67" value="yes" style="text;html=1;align=center;verticalAlign=middle;whiteSpace=wrap;rounded=0;" vertex="1" parent="OOJSj3EKYJAeltkpP3Uc-34">
          <mxGeometry x="452.5" y="1750" width="60" height="30" as="geometry" />
        </mxCell>
        <mxCell id="OOJSj3EKYJAeltkpP3Uc-72" value="yes" style="text;html=1;align=center;verticalAlign=middle;whiteSpace=wrap;rounded=0;" vertex="1" parent="OOJSj3EKYJAeltkpP3Uc-34">
          <mxGeometry x="299" y="1830" width="60" height="30" as="geometry" />
        </mxCell>
        <mxCell id="OOJSj3EKYJAeltkpP3Uc-73" value="no" style="text;html=1;align=center;verticalAlign=middle;whiteSpace=wrap;rounded=0;" vertex="1" parent="OOJSj3EKYJAeltkpP3Uc-34">
          <mxGeometry x="420" y="1910" width="60" height="30" as="geometry" />
        </mxCell>
        <mxCell id="OOJSj3EKYJAeltkpP3Uc-75" style="edgeStyle=orthogonalEdgeStyle;rounded=0;orthogonalLoop=1;jettySize=auto;html=1;exitX=0.5;exitY=1;exitDx=0;exitDy=0;entryX=0.5;entryY=0;entryDx=0;entryDy=0;" edge="1" parent="OOJSj3EKYJAeltkpP3Uc-34" source="OOJSj3EKYJAeltkpP3Uc-850" target="OOJSj3EKYJAeltkpP3Uc-50">
          <mxGeometry relative="1" as="geometry" />
        </mxCell>
        <mxCell id="OOJSj3EKYJAeltkpP3Uc-76" value="&lt;div&gt;&lt;span style=&quot;white-space: pre;&quot;&gt;&#x9;&lt;/span&gt;- โค้ก กระป๋องละ 10 บาท&lt;span style=&quot;white-space:pre&quot;&gt;&#x9;&#x9;&lt;/span&gt;&lt;/div&gt;&lt;div&gt;&lt;span style=&quot;white-space: pre;&quot;&gt;&#x9;&lt;/span&gt;- น้ำเขียว กระป๋องละ 12 บาท&lt;span style=&quot;white-space:pre&quot;&gt;&#x9;&#x9;&lt;/span&gt;&lt;/div&gt;&lt;div&gt;&lt;span style=&quot;background-color: transparent; color: light-dark(rgb(0, 0, 0), rgb(255, 255, 255));&quot;&gt;&lt;span style=&quot;white-space: pre;&quot;&gt;&#x9;&lt;/span&gt;- อเมริกาโน่ 30 บาท&lt;/span&gt;&lt;span style=&quot;background-color: transparent; color: light-dark(rgb(0, 0, 0), rgb(255, 255, 255)); white-space: pre;&quot;&gt;&#x9;&lt;/span&gt;&lt;/div&gt;&lt;div&gt;&lt;span style=&quot;background-color: transparent; color: light-dark(rgb(0, 0, 0), rgb(255, 255, 255));&quot;&gt;&lt;span style=&quot;white-space: pre;&quot;&gt;&#x9;&lt;/span&gt;- ลาเต้ หวานเจี๊ยบ 35 บาท&lt;/span&gt;&lt;/div&gt;" style="whiteSpace=wrap;html=1;align=left;" vertex="1" parent="OOJSj3EKYJAeltkpP3Uc-34">
          <mxGeometry x="210" y="760" width="219.14" height="80" as="geometry" />
        </mxCell>
        <mxCell id="OOJSj3EKYJAeltkpP3Uc-77" value="" style="edgeStyle=orthogonalEdgeStyle;rounded=0;orthogonalLoop=1;jettySize=auto;html=1;exitX=0.5;exitY=1;exitDx=0;exitDy=0;" edge="1" parent="OOJSj3EKYJAeltkpP3Uc-34" source="OOJSj3EKYJAeltkpP3Uc-852" target="OOJSj3EKYJAeltkpP3Uc-56">
          <mxGeometry relative="1" as="geometry" />
        </mxCell>
        <mxCell id="OOJSj3EKYJAeltkpP3Uc-78" value="&lt;div&gt;- เมล็ดทานตะวัน 13 บาท&lt;/div&gt;&lt;div&gt;- ถั่วแปบ 20 บาท&lt;/div&gt;&lt;div style=&quot;&quot;&gt;- จิ้นส้มหมก 15 บาท&lt;/div&gt;" style="whiteSpace=wrap;html=1;align=left;" vertex="1" parent="OOJSj3EKYJAeltkpP3Uc-34">
          <mxGeometry x="452.13" y="760" width="135.75" height="80" as="geometry" />
        </mxCell>
        <mxCell id="OOJSj3EKYJAeltkpP3Uc-238" value="" style="edgeStyle=orthogonalEdgeStyle;rounded=0;orthogonalLoop=1;jettySize=auto;html=1;" edge="1" parent="OOJSj3EKYJAeltkpP3Uc-34" source="OOJSj3EKYJAeltkpP3Uc-140" target="OOJSj3EKYJAeltkpP3Uc-38">
          <mxGeometry relative="1" as="geometry" />
        </mxCell>
        <mxCell id="OOJSj3EKYJAeltkpP3Uc-140" value="ตรวจสอบสินค้าภายในเครื่อง" style="shape=process;whiteSpace=wrap;html=1;backgroundOutline=1;" vertex="1" parent="OOJSj3EKYJAeltkpP3Uc-34">
          <mxGeometry x="259.25" y="220" width="120" height="60" as="geometry" />
        </mxCell>
        <mxCell id="OOJSj3EKYJAeltkpP3Uc-237" style="edgeStyle=orthogonalEdgeStyle;rounded=0;orthogonalLoop=1;jettySize=auto;html=1;entryX=0.5;entryY=0;entryDx=0;entryDy=0;" edge="1" parent="OOJSj3EKYJAeltkpP3Uc-34" source="OOJSj3EKYJAeltkpP3Uc-235" target="OOJSj3EKYJAeltkpP3Uc-140">
          <mxGeometry relative="1" as="geometry" />
        </mxCell>
        <mxCell id="OOJSj3EKYJAeltkpP3Uc-235" value="เมื่อลูกค้ามาใช้็งาน" style="rounded=0;whiteSpace=wrap;html=1;" vertex="1" parent="OOJSj3EKYJAeltkpP3Uc-34">
          <mxGeometry x="259.25" y="130" width="120" height="60" as="geometry" />
        </mxCell>
        <mxCell id="OOJSj3EKYJAeltkpP3Uc-641" style="edgeStyle=orthogonalEdgeStyle;rounded=0;orthogonalLoop=1;jettySize=auto;html=1;entryX=0.5;entryY=0;entryDx=0;entryDy=0;" edge="1" parent="OOJSj3EKYJAeltkpP3Uc-34" source="OOJSj3EKYJAeltkpP3Uc-83" target="OOJSj3EKYJAeltkpP3Uc-626">
          <mxGeometry relative="1" as="geometry" />
        </mxCell>
        <mxCell id="OOJSj3EKYJAeltkpP3Uc-83" value="แสดงจำนวนเงินที่ต้องชำระ" style="shape=display;whiteSpace=wrap;html=1;" vertex="1" parent="OOJSj3EKYJAeltkpP3Uc-34">
          <mxGeometry x="348.6200000000001" y="2230" width="140.25" height="70" as="geometry" />
        </mxCell>
        <mxCell id="OOJSj3EKYJAeltkpP3Uc-639" value="" style="edgeStyle=orthogonalEdgeStyle;rounded=0;orthogonalLoop=1;jettySize=auto;html=1;" edge="1" parent="OOJSj3EKYJAeltkpP3Uc-34" source="OOJSj3EKYJAeltkpP3Uc-69" target="OOJSj3EKYJAeltkpP3Uc-637">
          <mxGeometry relative="1" as="geometry" />
        </mxCell>
        <mxCell id="OOJSj3EKYJAeltkpP3Uc-69" value="แสดงรายการทั้งหมดที่ลูกค้าเลือก" style="whiteSpace=wrap;html=1;" vertex="1" parent="OOJSj3EKYJAeltkpP3Uc-34">
          <mxGeometry x="336.25" y="1970" width="165" height="60" as="geometry" />
        </mxCell>
        <mxCell id="OOJSj3EKYJAeltkpP3Uc-648" value="" style="edgeStyle=orthogonalEdgeStyle;rounded=0;orthogonalLoop=1;jettySize=auto;html=1;" edge="1" parent="OOJSj3EKYJAeltkpP3Uc-34" source="OOJSj3EKYJAeltkpP3Uc-626" target="OOJSj3EKYJAeltkpP3Uc-107">
          <mxGeometry relative="1" as="geometry" />
        </mxCell>
        <mxCell id="OOJSj3EKYJAeltkpP3Uc-626" value="เลือกประเภทการชำระเงิน" style="shape=process;whiteSpace=wrap;html=1;backgroundOutline=1;" vertex="1" parent="OOJSj3EKYJAeltkpP3Uc-34">
          <mxGeometry x="330.62" y="2370" width="176.25" height="70" as="geometry" />
        </mxCell>
        <mxCell id="OOJSj3EKYJAeltkpP3Uc-640" value="" style="edgeStyle=orthogonalEdgeStyle;rounded=0;orthogonalLoop=1;jettySize=auto;html=1;" edge="1" parent="OOJSj3EKYJAeltkpP3Uc-34" source="OOJSj3EKYJAeltkpP3Uc-637" target="OOJSj3EKYJAeltkpP3Uc-83">
          <mxGeometry relative="1" as="geometry" />
        </mxCell>
        <mxCell id="OOJSj3EKYJAeltkpP3Uc-637" value="รวมราคาทั้งหมดของสินค้าที่เลือก&amp;nbsp;" style="shape=parallelogram;perimeter=parallelogramPerimeter;whiteSpace=wrap;html=1;fixedSize=1;" vertex="1" parent="OOJSj3EKYJAeltkpP3Uc-34">
          <mxGeometry x="333.75" y="2100" width="170" height="60" as="geometry" />
        </mxCell>
        <mxCell id="OOJSj3EKYJAeltkpP3Uc-74" value="&lt;span style=&quot;font-size: 15px;&quot;&gt;สิ้นสุด&lt;/span&gt;" style="strokeWidth=1;html=1;shape=mxgraph.flowchart.terminator;whiteSpace=wrap;" vertex="1" parent="OOJSj3EKYJAeltkpP3Uc-34">
          <mxGeometry x="354.0000000000002" y="2740" width="130" height="60" as="geometry" />
        </mxCell>
        <mxCell id="OOJSj3EKYJAeltkpP3Uc-106" style="edgeStyle=orthogonalEdgeStyle;rounded=0;orthogonalLoop=1;jettySize=auto;html=1;exitX=0.5;exitY=1;exitDx=0;exitDy=0;entryX=0.5;entryY=0;entryDx=0;entryDy=0;" edge="1" parent="OOJSj3EKYJAeltkpP3Uc-34" source="OOJSj3EKYJAeltkpP3Uc-107" target="OOJSj3EKYJAeltkpP3Uc-120">
          <mxGeometry relative="1" as="geometry" />
        </mxCell>
        <mxCell id="OOJSj3EKYJAeltkpP3Uc-107" value="&lt;span style=&quot;font-size: 12px;&quot;&gt;ชำระเงินเสร็จสิ้น&lt;/span&gt;" style="rounded=0;whiteSpace=wrap;html=1;" vertex="1" parent="OOJSj3EKYJAeltkpP3Uc-34">
          <mxGeometry x="357.5000000000002" y="2520" width="120" height="60" as="geometry" />
        </mxCell>
        <mxCell id="OOJSj3EKYJAeltkpP3Uc-120" value="มอบสินค้าให้กับลูกค้า" style="rounded=0;whiteSpace=wrap;html=1;" vertex="1" parent="OOJSj3EKYJAeltkpP3Uc-34">
          <mxGeometry x="359.0000000000002" y="2630" width="120" height="60" as="geometry" />
        </mxCell>
        <mxCell id="OOJSj3EKYJAeltkpP3Uc-121" style="edgeStyle=orthogonalEdgeStyle;rounded=0;orthogonalLoop=1;jettySize=auto;html=1;entryX=0.5;entryY=0;entryDx=0;entryDy=0;entryPerimeter=0;" edge="1" parent="OOJSj3EKYJAeltkpP3Uc-34" source="OOJSj3EKYJAeltkpP3Uc-120" target="OOJSj3EKYJAeltkpP3Uc-74">
          <mxGeometry relative="1" as="geometry" />
        </mxCell>
        <mxCell id="OOJSj3EKYJAeltkpP3Uc-672" value="no" style="text;html=1;align=center;verticalAlign=middle;whiteSpace=wrap;rounded=0;" vertex="1" parent="OOJSj3EKYJAeltkpP3Uc-34">
          <mxGeometry x="527.87" y="510" width="60" height="30" as="geometry" />
        </mxCell>
        <mxCell id="OOJSj3EKYJAeltkpP3Uc-804" value="" style="edgeStyle=orthogonalEdgeStyle;rounded=0;orthogonalLoop=1;jettySize=auto;html=1;" edge="1" parent="OOJSj3EKYJAeltkpP3Uc-34" source="OOJSj3EKYJAeltkpP3Uc-38" target="OOJSj3EKYJAeltkpP3Uc-803">
          <mxGeometry relative="1" as="geometry">
            <mxPoint x="-401" y="980" as="sourcePoint" />
            <mxPoint x="-400" y="1060" as="targetPoint" />
          </mxGeometry>
        </mxCell>
        <mxCell id="OOJSj3EKYJAeltkpP3Uc-803" value="" style="ellipse;whiteSpace=wrap;html=1;aspect=fixed;" vertex="1" parent="OOJSj3EKYJAeltkpP3Uc-34">
          <mxGeometry x="299" y="380" width="40" height="40" as="geometry" />
        </mxCell>
        <mxCell id="OOJSj3EKYJAeltkpP3Uc-814" value="" style="edgeStyle=orthogonalEdgeStyle;rounded=0;orthogonalLoop=1;jettySize=auto;html=1;exitX=0.5;exitY=1;exitDx=0;exitDy=0;entryX=0.5;entryY=0;entryDx=0;entryDy=0;" edge="1" parent="OOJSj3EKYJAeltkpP3Uc-34" source="OOJSj3EKYJAeltkpP3Uc-846" target="OOJSj3EKYJAeltkpP3Uc-806">
          <mxGeometry relative="1" as="geometry">
            <mxPoint x="-400" y="1500" as="sourcePoint" />
            <mxPoint x="-401" y="1970" as="targetPoint" />
          </mxGeometry>
        </mxCell>
        <mxCell id="OOJSj3EKYJAeltkpP3Uc-831" value="" style="edgeStyle=orthogonalEdgeStyle;rounded=0;orthogonalLoop=1;jettySize=auto;html=1;" edge="1" parent="OOJSj3EKYJAeltkpP3Uc-34" source="OOJSj3EKYJAeltkpP3Uc-806" target="OOJSj3EKYJAeltkpP3Uc-823">
          <mxGeometry relative="1" as="geometry" />
        </mxCell>
        <mxCell id="OOJSj3EKYJAeltkpP3Uc-806" value="โค้กกระป๋องละ&lt;span style=&quot;text-align: left;&quot;&gt;&amp;nbsp;10 บาท&lt;/span&gt;" style="rhombus;whiteSpace=wrap;html=1;" vertex="1" parent="OOJSj3EKYJAeltkpP3Uc-34">
          <mxGeometry x="260" y="950" width="117.49" height="103" as="geometry" />
        </mxCell>
        <mxCell id="OOJSj3EKYJAeltkpP3Uc-815" value="" style="edgeStyle=orthogonalEdgeStyle;rounded=0;orthogonalLoop=1;jettySize=auto;html=1;exitX=0.5;exitY=1;exitDx=0;exitDy=0;entryX=0.5;entryY=0;entryDx=0;entryDy=0;" edge="1" parent="OOJSj3EKYJAeltkpP3Uc-34" source="OOJSj3EKYJAeltkpP3Uc-806" target="OOJSj3EKYJAeltkpP3Uc-807">
          <mxGeometry relative="1" as="geometry">
            <mxPoint x="-400" y="1770" as="sourcePoint" />
            <mxPoint x="-401" y="2060" as="targetPoint" />
          </mxGeometry>
        </mxCell>
        <mxCell id="OOJSj3EKYJAeltkpP3Uc-832" value="" style="edgeStyle=orthogonalEdgeStyle;rounded=0;orthogonalLoop=1;jettySize=auto;html=1;" edge="1" parent="OOJSj3EKYJAeltkpP3Uc-34" source="OOJSj3EKYJAeltkpP3Uc-807" target="OOJSj3EKYJAeltkpP3Uc-826">
          <mxGeometry relative="1" as="geometry" />
        </mxCell>
        <mxCell id="OOJSj3EKYJAeltkpP3Uc-807" value="&lt;span style=&quot;text-align: left;&quot;&gt;น้ำเขียวกระป๋องละ 12 บาท&lt;/span&gt;&lt;span style=&quot;text-align: left; white-space: pre;&quot;&gt;&#x9;&lt;/span&gt;" style="rhombus;whiteSpace=wrap;html=1;" vertex="1" parent="OOJSj3EKYJAeltkpP3Uc-34">
          <mxGeometry x="257.08" y="1090" width="124.99" height="100" as="geometry" />
        </mxCell>
        <mxCell id="OOJSj3EKYJAeltkpP3Uc-816" value="" style="edgeStyle=orthogonalEdgeStyle;rounded=0;orthogonalLoop=1;jettySize=auto;html=1;exitX=0.5;exitY=1;exitDx=0;exitDy=0;entryX=0.5;entryY=0;entryDx=0;entryDy=0;" edge="1" parent="OOJSj3EKYJAeltkpP3Uc-34" source="OOJSj3EKYJAeltkpP3Uc-807" target="OOJSj3EKYJAeltkpP3Uc-810">
          <mxGeometry relative="1" as="geometry">
            <mxPoint x="-391" y="1840" as="sourcePoint" />
            <mxPoint x="-391" y="2050" as="targetPoint" />
          </mxGeometry>
        </mxCell>
        <mxCell id="OOJSj3EKYJAeltkpP3Uc-833" value="" style="edgeStyle=orthogonalEdgeStyle;rounded=0;orthogonalLoop=1;jettySize=auto;html=1;" edge="1" parent="OOJSj3EKYJAeltkpP3Uc-34" source="OOJSj3EKYJAeltkpP3Uc-810" target="OOJSj3EKYJAeltkpP3Uc-824">
          <mxGeometry relative="1" as="geometry" />
        </mxCell>
        <mxCell id="OOJSj3EKYJAeltkpP3Uc-810" value="&lt;div style=&quot;text-align: left;&quot;&gt;&lt;div&gt;&lt;span style=&quot;background-color: transparent; color: light-dark(rgb(0, 0, 0), rgb(255, 255, 255));&quot;&gt;อเมริกาโน่ 30 บาท&lt;/span&gt;&lt;span style=&quot;background-color: transparent; color: light-dark(rgb(0, 0, 0), rgb(255, 255, 255)); white-space: pre;&quot;&gt;&#x9;&lt;/span&gt;&lt;/div&gt;&lt;/div&gt;" style="rhombus;whiteSpace=wrap;html=1;" vertex="1" parent="OOJSj3EKYJAeltkpP3Uc-34">
          <mxGeometry x="257.08" y="1220" width="126" height="110" as="geometry" />
        </mxCell>
        <mxCell id="OOJSj3EKYJAeltkpP3Uc-818" value="" style="edgeStyle=orthogonalEdgeStyle;rounded=0;orthogonalLoop=1;jettySize=auto;html=1;exitX=0.5;exitY=1;exitDx=0;exitDy=0;entryX=0.5;entryY=0;entryDx=0;entryDy=0;" edge="1" parent="OOJSj3EKYJAeltkpP3Uc-34" source="OOJSj3EKYJAeltkpP3Uc-810" target="OOJSj3EKYJAeltkpP3Uc-809">
          <mxGeometry relative="1" as="geometry">
            <mxPoint x="-390" y="1930" as="sourcePoint" />
            <mxPoint x="-391" y="2090" as="targetPoint" />
          </mxGeometry>
        </mxCell>
        <mxCell id="OOJSj3EKYJAeltkpP3Uc-834" value="" style="edgeStyle=orthogonalEdgeStyle;rounded=0;orthogonalLoop=1;jettySize=auto;html=1;" edge="1" parent="OOJSj3EKYJAeltkpP3Uc-34" source="OOJSj3EKYJAeltkpP3Uc-809" target="OOJSj3EKYJAeltkpP3Uc-827">
          <mxGeometry relative="1" as="geometry" />
        </mxCell>
        <mxCell id="OOJSj3EKYJAeltkpP3Uc-809" value="&lt;span style=&quot;text-align: left;&quot;&gt;ลาเต้หวานเจี๊ยบ 35 บาท&lt;/span&gt;" style="rhombus;whiteSpace=wrap;html=1;" vertex="1" parent="OOJSj3EKYJAeltkpP3Uc-34">
          <mxGeometry x="254" y="1350" width="130" height="120" as="geometry" />
        </mxCell>
        <mxCell id="OOJSj3EKYJAeltkpP3Uc-819" value="" style="edgeStyle=orthogonalEdgeStyle;rounded=0;orthogonalLoop=1;jettySize=auto;html=1;" edge="1" parent="OOJSj3EKYJAeltkpP3Uc-34" source="OOJSj3EKYJAeltkpP3Uc-847" target="OOJSj3EKYJAeltkpP3Uc-808">
          <mxGeometry relative="1" as="geometry">
            <mxPoint x="-190" y="1450" as="sourcePoint" />
            <mxPoint x="-190" y="1970" as="targetPoint" />
          </mxGeometry>
        </mxCell>
        <mxCell id="OOJSj3EKYJAeltkpP3Uc-837" value="" style="edgeStyle=orthogonalEdgeStyle;rounded=0;orthogonalLoop=1;jettySize=auto;html=1;" edge="1" parent="OOJSj3EKYJAeltkpP3Uc-34" source="OOJSj3EKYJAeltkpP3Uc-808" target="OOJSj3EKYJAeltkpP3Uc-828">
          <mxGeometry relative="1" as="geometry" />
        </mxCell>
        <mxCell id="OOJSj3EKYJAeltkpP3Uc-808" value="&lt;span style=&quot;text-align: left;&quot;&gt;เมล็ดทานตะวัน 13 บาท&lt;/span&gt;" style="rhombus;whiteSpace=wrap;html=1;" vertex="1" parent="OOJSj3EKYJAeltkpP3Uc-34">
          <mxGeometry x="455" y="950" width="130" height="120" as="geometry" />
        </mxCell>
        <mxCell id="OOJSj3EKYJAeltkpP3Uc-820" value="" style="edgeStyle=orthogonalEdgeStyle;rounded=0;orthogonalLoop=1;jettySize=auto;html=1;" edge="1" parent="OOJSj3EKYJAeltkpP3Uc-34" source="OOJSj3EKYJAeltkpP3Uc-808" target="OOJSj3EKYJAeltkpP3Uc-811">
          <mxGeometry relative="1" as="geometry">
            <mxPoint x="-190" y="1680" as="sourcePoint" />
            <mxPoint x="-190" y="2060" as="targetPoint" />
          </mxGeometry>
        </mxCell>
        <mxCell id="OOJSj3EKYJAeltkpP3Uc-836" value="" style="edgeStyle=orthogonalEdgeStyle;rounded=0;orthogonalLoop=1;jettySize=auto;html=1;" edge="1" parent="OOJSj3EKYJAeltkpP3Uc-34" source="OOJSj3EKYJAeltkpP3Uc-811" target="OOJSj3EKYJAeltkpP3Uc-829">
          <mxGeometry relative="1" as="geometry" />
        </mxCell>
        <mxCell id="OOJSj3EKYJAeltkpP3Uc-811" value="&lt;span style=&quot;text-align: left;&quot;&gt;ถั่วแปบ 20 บาท&lt;/span&gt;" style="rhombus;whiteSpace=wrap;html=1;" vertex="1" parent="OOJSj3EKYJAeltkpP3Uc-34">
          <mxGeometry x="455" y="1120" width="130" height="120" as="geometry" />
        </mxCell>
        <mxCell id="OOJSj3EKYJAeltkpP3Uc-821" value="" style="edgeStyle=orthogonalEdgeStyle;rounded=0;orthogonalLoop=1;jettySize=auto;html=1;" edge="1" parent="OOJSj3EKYJAeltkpP3Uc-34" source="OOJSj3EKYJAeltkpP3Uc-811" target="OOJSj3EKYJAeltkpP3Uc-812">
          <mxGeometry relative="1" as="geometry">
            <mxPoint x="-190" y="1860" as="sourcePoint" />
            <mxPoint x="-190" y="2060" as="targetPoint" />
          </mxGeometry>
        </mxCell>
        <mxCell id="OOJSj3EKYJAeltkpP3Uc-835" value="" style="edgeStyle=orthogonalEdgeStyle;rounded=0;orthogonalLoop=1;jettySize=auto;html=1;" edge="1" parent="OOJSj3EKYJAeltkpP3Uc-34" source="OOJSj3EKYJAeltkpP3Uc-812" target="OOJSj3EKYJAeltkpP3Uc-830">
          <mxGeometry relative="1" as="geometry" />
        </mxCell>
        <mxCell id="OOJSj3EKYJAeltkpP3Uc-856" style="edgeStyle=orthogonalEdgeStyle;rounded=0;orthogonalLoop=1;jettySize=auto;html=1;" edge="1" parent="OOJSj3EKYJAeltkpP3Uc-34" source="OOJSj3EKYJAeltkpP3Uc-812" target="OOJSj3EKYJAeltkpP3Uc-852">
          <mxGeometry relative="1" as="geometry" />
        </mxCell>
        <mxCell id="OOJSj3EKYJAeltkpP3Uc-812" value="&lt;span style=&quot;text-align: left;&quot;&gt;จิ้นส้มหมก 15 บาท&lt;/span&gt;" style="rhombus;whiteSpace=wrap;html=1;" vertex="1" parent="OOJSj3EKYJAeltkpP3Uc-34">
          <mxGeometry x="454.99" y="1280" width="130" height="120" as="geometry" />
        </mxCell>
        <mxCell id="OOJSj3EKYJAeltkpP3Uc-842" value="" style="edgeStyle=orthogonalEdgeStyle;rounded=0;orthogonalLoop=1;jettySize=auto;html=1;" edge="1" parent="OOJSj3EKYJAeltkpP3Uc-34" source="OOJSj3EKYJAeltkpP3Uc-823" target="OOJSj3EKYJAeltkpP3Uc-826">
          <mxGeometry relative="1" as="geometry" />
        </mxCell>
        <mxCell id="OOJSj3EKYJAeltkpP3Uc-823" value="&amp;gt;1" style="rhombus;whiteSpace=wrap;html=1;" vertex="1" parent="OOJSj3EKYJAeltkpP3Uc-34">
          <mxGeometry x="150" y="961.5" width="80" height="80" as="geometry" />
        </mxCell>
        <mxCell id="OOJSj3EKYJAeltkpP3Uc-841" value="" style="edgeStyle=orthogonalEdgeStyle;rounded=0;orthogonalLoop=1;jettySize=auto;html=1;" edge="1" parent="OOJSj3EKYJAeltkpP3Uc-34" source="OOJSj3EKYJAeltkpP3Uc-826" target="OOJSj3EKYJAeltkpP3Uc-824">
          <mxGeometry relative="1" as="geometry" />
        </mxCell>
        <mxCell id="OOJSj3EKYJAeltkpP3Uc-826" value="&amp;gt;1" style="rhombus;whiteSpace=wrap;html=1;" vertex="1" parent="OOJSj3EKYJAeltkpP3Uc-34">
          <mxGeometry x="149.25" y="1100" width="80" height="80" as="geometry" />
        </mxCell>
        <mxCell id="OOJSj3EKYJAeltkpP3Uc-840" value="" style="edgeStyle=orthogonalEdgeStyle;rounded=0;orthogonalLoop=1;jettySize=auto;html=1;" edge="1" parent="OOJSj3EKYJAeltkpP3Uc-34" source="OOJSj3EKYJAeltkpP3Uc-824" target="OOJSj3EKYJAeltkpP3Uc-827">
          <mxGeometry relative="1" as="geometry" />
        </mxCell>
        <mxCell id="OOJSj3EKYJAeltkpP3Uc-824" value="&amp;gt;1" style="rhombus;whiteSpace=wrap;html=1;" vertex="1" parent="OOJSj3EKYJAeltkpP3Uc-34">
          <mxGeometry x="149.25" y="1235" width="80" height="80" as="geometry" />
        </mxCell>
        <mxCell id="OOJSj3EKYJAeltkpP3Uc-854" style="edgeStyle=orthogonalEdgeStyle;rounded=0;orthogonalLoop=1;jettySize=auto;html=1;entryX=0;entryY=0.5;entryDx=0;entryDy=0;" edge="1" parent="OOJSj3EKYJAeltkpP3Uc-34" source="OOJSj3EKYJAeltkpP3Uc-827" target="OOJSj3EKYJAeltkpP3Uc-850">
          <mxGeometry relative="1" as="geometry">
            <Array as="points">
              <mxPoint x="189" y="1570" />
            </Array>
          </mxGeometry>
        </mxCell>
        <mxCell id="OOJSj3EKYJAeltkpP3Uc-827" value="&amp;gt;1" style="rhombus;whiteSpace=wrap;html=1;" vertex="1" parent="OOJSj3EKYJAeltkpP3Uc-34">
          <mxGeometry x="149.25" y="1370" width="80" height="80" as="geometry" />
        </mxCell>
        <mxCell id="OOJSj3EKYJAeltkpP3Uc-838" value="" style="edgeStyle=orthogonalEdgeStyle;rounded=0;orthogonalLoop=1;jettySize=auto;html=1;" edge="1" parent="OOJSj3EKYJAeltkpP3Uc-34" source="OOJSj3EKYJAeltkpP3Uc-828" target="OOJSj3EKYJAeltkpP3Uc-829">
          <mxGeometry relative="1" as="geometry" />
        </mxCell>
        <mxCell id="OOJSj3EKYJAeltkpP3Uc-828" value="&amp;gt;1" style="rhombus;whiteSpace=wrap;html=1;" vertex="1" parent="OOJSj3EKYJAeltkpP3Uc-34">
          <mxGeometry x="620" y="970" width="80" height="80" as="geometry" />
        </mxCell>
        <mxCell id="OOJSj3EKYJAeltkpP3Uc-839" value="" style="edgeStyle=orthogonalEdgeStyle;rounded=0;orthogonalLoop=1;jettySize=auto;html=1;" edge="1" parent="OOJSj3EKYJAeltkpP3Uc-34" source="OOJSj3EKYJAeltkpP3Uc-829" target="OOJSj3EKYJAeltkpP3Uc-830">
          <mxGeometry relative="1" as="geometry" />
        </mxCell>
        <mxCell id="OOJSj3EKYJAeltkpP3Uc-829" value="&amp;gt;1" style="rhombus;whiteSpace=wrap;html=1;" vertex="1" parent="OOJSj3EKYJAeltkpP3Uc-34">
          <mxGeometry x="620" y="1140" width="80" height="80" as="geometry" />
        </mxCell>
        <mxCell id="OOJSj3EKYJAeltkpP3Uc-830" value="&amp;gt;1" style="rhombus;whiteSpace=wrap;html=1;" vertex="1" parent="OOJSj3EKYJAeltkpP3Uc-34">
          <mxGeometry x="620" y="1300" width="80" height="80" as="geometry" />
        </mxCell>
        <mxCell id="OOJSj3EKYJAeltkpP3Uc-846" value="" style="ellipse;whiteSpace=wrap;html=1;aspect=fixed;" vertex="1" parent="OOJSj3EKYJAeltkpP3Uc-34">
          <mxGeometry x="296.25" y="873" width="40" height="40" as="geometry" />
        </mxCell>
        <mxCell id="OOJSj3EKYJAeltkpP3Uc-848" value="" style="edgeStyle=orthogonalEdgeStyle;rounded=0;orthogonalLoop=1;jettySize=auto;html=1;exitX=0.5;exitY=1;exitDx=0;exitDy=0;entryX=0.5;entryY=0;entryDx=0;entryDy=0;" edge="1" parent="OOJSj3EKYJAeltkpP3Uc-34" source="OOJSj3EKYJAeltkpP3Uc-76" target="OOJSj3EKYJAeltkpP3Uc-846">
          <mxGeometry relative="1" as="geometry">
            <mxPoint x="-400" y="1450" as="sourcePoint" />
            <mxPoint x="-401" y="1630" as="targetPoint" />
          </mxGeometry>
        </mxCell>
        <mxCell id="OOJSj3EKYJAeltkpP3Uc-847" value="" style="ellipse;whiteSpace=wrap;html=1;aspect=fixed;" vertex="1" parent="OOJSj3EKYJAeltkpP3Uc-34">
          <mxGeometry x="499.99" y="873" width="40" height="40" as="geometry" />
        </mxCell>
        <mxCell id="OOJSj3EKYJAeltkpP3Uc-849" value="" style="edgeStyle=orthogonalEdgeStyle;rounded=0;orthogonalLoop=1;jettySize=auto;html=1;" edge="1" parent="OOJSj3EKYJAeltkpP3Uc-34" source="OOJSj3EKYJAeltkpP3Uc-78" target="OOJSj3EKYJAeltkpP3Uc-847">
          <mxGeometry relative="1" as="geometry">
            <mxPoint x="-200" y="1450" as="sourcePoint" />
            <mxPoint x="-200" y="1630" as="targetPoint" />
          </mxGeometry>
        </mxCell>
        <mxCell id="OOJSj3EKYJAeltkpP3Uc-851" value="" style="edgeStyle=orthogonalEdgeStyle;rounded=0;orthogonalLoop=1;jettySize=auto;html=1;exitX=0.5;exitY=1;exitDx=0;exitDy=0;" edge="1" parent="OOJSj3EKYJAeltkpP3Uc-34" source="OOJSj3EKYJAeltkpP3Uc-830" target="OOJSj3EKYJAeltkpP3Uc-852">
          <mxGeometry relative="1" as="geometry">
            <mxPoint x="-60" y="1990" as="sourcePoint" />
            <mxPoint x="-200" y="2260" as="targetPoint" />
            <Array as="points">
              <mxPoint x="660" y="1570" />
            </Array>
          </mxGeometry>
        </mxCell>
        <mxCell id="OOJSj3EKYJAeltkpP3Uc-858" style="edgeStyle=orthogonalEdgeStyle;rounded=0;orthogonalLoop=1;jettySize=auto;html=1;entryX=0;entryY=0.5;entryDx=0;entryDy=0;" edge="1" parent="OOJSj3EKYJAeltkpP3Uc-34" source="OOJSj3EKYJAeltkpP3Uc-852" target="OOJSj3EKYJAeltkpP3Uc-847">
          <mxGeometry relative="1" as="geometry">
            <Array as="points">
              <mxPoint x="430" y="1570" />
              <mxPoint x="430" y="893" />
            </Array>
          </mxGeometry>
        </mxCell>
        <mxCell id="OOJSj3EKYJAeltkpP3Uc-852" value="ต้องการสินค้าหรือไม่" style="rhombus;whiteSpace=wrap;html=1;" vertex="1" parent="OOJSj3EKYJAeltkpP3Uc-34">
          <mxGeometry x="462.5" y="1530" width="115.01" height="80" as="geometry" />
        </mxCell>
        <mxCell id="OOJSj3EKYJAeltkpP3Uc-857" style="edgeStyle=orthogonalEdgeStyle;rounded=0;orthogonalLoop=1;jettySize=auto;html=1;entryX=1;entryY=0.5;entryDx=0;entryDy=0;" edge="1" parent="OOJSj3EKYJAeltkpP3Uc-34" source="OOJSj3EKYJAeltkpP3Uc-850" target="OOJSj3EKYJAeltkpP3Uc-846">
          <mxGeometry relative="1" as="geometry">
            <Array as="points">
              <mxPoint x="410" y="1570" />
              <mxPoint x="410" y="893" />
            </Array>
          </mxGeometry>
        </mxCell>
        <mxCell id="OOJSj3EKYJAeltkpP3Uc-850" value="ต้องการสินค้าหรือไม่" style="rhombus;whiteSpace=wrap;html=1;" vertex="1" parent="OOJSj3EKYJAeltkpP3Uc-34">
          <mxGeometry x="260" y="1530" width="120" height="80" as="geometry" />
        </mxCell>
        <mxCell id="OOJSj3EKYJAeltkpP3Uc-855" style="edgeStyle=orthogonalEdgeStyle;rounded=0;orthogonalLoop=1;jettySize=auto;html=1;entryX=0.5;entryY=0;entryDx=0;entryDy=0;" edge="1" parent="OOJSj3EKYJAeltkpP3Uc-34" source="OOJSj3EKYJAeltkpP3Uc-809" target="OOJSj3EKYJAeltkpP3Uc-850">
          <mxGeometry relative="1" as="geometry" />
        </mxCell>
        <mxCell id="OOJSj3EKYJAeltkpP3Uc-130" value="&lt;font data-font-src=&quot;https://fonts.googleapis.com/css?family=Sarabun&quot; face=&quot;Sarabun&quot;&gt;โจทย์ปัญหา&lt;/font&gt;" style="swimlane;whiteSpace=wrap;html=1;" vertex="1" parent="1">
          <mxGeometry x="-720" y="320" width="640" height="240" as="geometry" />
        </mxCell>
        <mxCell id="OOJSj3EKYJAeltkpP3Uc-131" value="&lt;font data-font-src=&quot;https://fonts.googleapis.com/css?family=Sarabun&quot; face=&quot;Sarabun&quot; style=&quot;font-size: 14px;&quot;&gt;จงเขียน Flowchart เพื่อแสดงขั้นตอนการทำงาน ของเครื่องขายน้ำอัตโนมัติที่ชื่อว่า &quot;ตะพาบลอย&quot;&lt;br&gt;โดยจะต้องมีสินค้าดังนี้&lt;br&gt;&lt;u&gt;ประเภทน้ำ&lt;span style=&quot;white-space: pre;&quot;&gt;&#x9;&lt;/span&gt;&lt;span style=&quot;white-space: pre;&quot;&gt;&#x9;&lt;/span&gt;&lt;span style=&quot;white-space: pre;&quot;&gt;&#x9;&lt;/span&gt;&lt;span style=&quot;white-space: pre;&quot;&gt;&#x9;&lt;/span&gt;&lt;span style=&quot;white-space: pre;&quot;&gt;&#x9;&lt;/span&gt;&lt;span style=&quot;white-space: pre;&quot;&gt;&#x9;&lt;span style=&quot;white-space: pre;&quot;&gt;&#x9;&lt;/span&gt;ข&lt;/span&gt;นม&lt;/u&gt;&lt;br&gt;&lt;span style=&quot;white-space: pre;&quot;&gt;&#x9;&lt;/span&gt;- โค้ก กระป๋องละ 10 บาท&lt;span style=&quot;white-space: pre;&quot;&gt;&#x9;&lt;/span&gt;&lt;span style=&quot;white-space: pre;&quot;&gt;&#x9;&lt;/span&gt;&lt;span style=&quot;white-space: pre;&quot;&gt;&#x9;&lt;/span&gt;&lt;span style=&quot;white-space: pre;&quot;&gt;&#x9;&lt;/span&gt;- เมล็ดทานตะวัน 13 บาท&lt;br&gt;&lt;span style=&quot;white-space: pre;&quot;&gt;&#x9;&lt;/span&gt;- น้ำเขียว กระป๋องละ 12 บาท&lt;span style=&quot;white-space: pre;&quot;&gt;&#x9;&lt;/span&gt;&lt;span style=&quot;white-space: pre;&quot;&gt;&#x9;&lt;/span&gt;&lt;span style=&quot;white-space: pre;&quot;&gt;&#x9;&lt;/span&gt;- ถั่วแปบ 20 บาท&lt;br&gt;&lt;span style=&quot;white-space: pre;&quot;&gt;&#x9;&lt;/span&gt;- อเมริกาโน่ 30 บาท&lt;span style=&quot;white-space: pre;&quot;&gt;&#x9;&lt;/span&gt;&lt;span style=&quot;white-space: pre;&quot;&gt;&#x9;&lt;/span&gt;&lt;span style=&quot;white-space: pre;&quot;&gt;&#x9;&lt;/span&gt;&lt;span style=&quot;white-space: pre;&quot;&gt;&#x9;&lt;/span&gt;&lt;span style=&quot;white-space: pre;&quot;&gt;&#x9;&lt;/span&gt;- จิ้นส้มหมก 15 บาท&lt;br&gt;&lt;span style=&quot;white-space: pre;&quot;&gt;&#x9;&lt;/span&gt;- ลาเต้ หวานเจี๊ยบ 35 บาท&lt;span style=&quot;white-space: pre;&quot;&gt;&#x9;&lt;/span&gt;&lt;br&gt;&lt;br&gt;&lt;u&gt;สิ่งที่ระบบควรจะทำได้&lt;/u&gt;&lt;br&gt;&lt;span style=&quot;white-space: pre;&quot;&gt;&#x9;&lt;/span&gt;- ลูกค้าเลือกสินค้า, ระบบจะต้องรวมยอดขาย และรวมรายการสินค้าทั้งหมดที่ลูกค้าเลือก&lt;br&gt;&lt;span style=&quot;white-space: pre;&quot;&gt;&#x9;&lt;/span&gt;- สรุปยอดว่าเหลือเงินในตู้อีกเท่าไหร่ เหลือเหรียญอะไรบ้าง? ธนบัตรอะไรบ้าง? อย่างละเท่าไหร่?&lt;br&gt;&lt;br&gt;&lt;br&gt;&lt;/font&gt;" style="text;html=1;align=left;verticalAlign=middle;resizable=0;points=[];autosize=1;strokeColor=none;fillColor=none;fontSize=14;" vertex="1" parent="OOJSj3EKYJAeltkpP3Uc-130">
          <mxGeometry x="25" y="30" width="580" height="240" as="geometry" />
        </mxCell>
        <mxCell id="OOJSj3EKYJAeltkpP3Uc-234" value="&lt;span style=&quot;font-weight: 400;&quot;&gt;ฟังชั่นตรวจสอบสินค้าภายในเครื่อง&lt;/span&gt;" style="swimlane;whiteSpace=wrap;html=1;" vertex="1" parent="1">
          <mxGeometry x="350" y="590" width="830" height="2200" as="geometry" />
        </mxCell>
        <mxCell id="OOJSj3EKYJAeltkpP3Uc-242" value="" style="edgeStyle=orthogonalEdgeStyle;rounded=0;orthogonalLoop=1;jettySize=auto;html=1;" edge="1" parent="OOJSj3EKYJAeltkpP3Uc-234" source="OOJSj3EKYJAeltkpP3Uc-239" target="OOJSj3EKYJAeltkpP3Uc-240">
          <mxGeometry relative="1" as="geometry" />
        </mxCell>
        <mxCell id="OOJSj3EKYJAeltkpP3Uc-239" value="&lt;font style=&quot;font-size: 15px;&quot;&gt;เริ่มต้น&lt;/font&gt;" style="strokeWidth=1;html=1;shape=mxgraph.flowchart.terminator;whiteSpace=wrap;" vertex="1" parent="OOJSj3EKYJAeltkpP3Uc-234">
          <mxGeometry x="293" y="40" width="130" height="60" as="geometry" />
        </mxCell>
        <mxCell id="OOJSj3EKYJAeltkpP3Uc-249" value="" style="edgeStyle=orthogonalEdgeStyle;rounded=0;orthogonalLoop=1;jettySize=auto;html=1;" edge="1" parent="OOJSj3EKYJAeltkpP3Uc-234" source="OOJSj3EKYJAeltkpP3Uc-240" target="OOJSj3EKYJAeltkpP3Uc-246">
          <mxGeometry relative="1" as="geometry" />
        </mxCell>
        <mxCell id="OOJSj3EKYJAeltkpP3Uc-240" value="ตรวจสอบสินค้าภายในเครื่อง" style="rounded=0;whiteSpace=wrap;html=1;" vertex="1" parent="OOJSj3EKYJAeltkpP3Uc-234">
          <mxGeometry x="298" y="160" width="120" height="60" as="geometry" />
        </mxCell>
        <mxCell id="OOJSj3EKYJAeltkpP3Uc-250" value="" style="edgeStyle=orthogonalEdgeStyle;rounded=0;orthogonalLoop=1;jettySize=auto;html=1;" edge="1" parent="OOJSj3EKYJAeltkpP3Uc-234" source="OOJSj3EKYJAeltkpP3Uc-246" target="OOJSj3EKYJAeltkpP3Uc-244">
          <mxGeometry relative="1" as="geometry" />
        </mxCell>
        <mxCell id="OOJSj3EKYJAeltkpP3Uc-246" value="ตรวจสอบ&quot;จำนวน&quot;ของประเภทสินค้าในเครื่อง" style="rounded=0;whiteSpace=wrap;html=1;" vertex="1" parent="OOJSj3EKYJAeltkpP3Uc-234">
          <mxGeometry x="298" y="270" width="120" height="60" as="geometry" />
        </mxCell>
        <mxCell id="OOJSj3EKYJAeltkpP3Uc-251" value="" style="edgeStyle=orthogonalEdgeStyle;rounded=0;orthogonalLoop=1;jettySize=auto;html=1;" edge="1" parent="OOJSj3EKYJAeltkpP3Uc-234" source="OOJSj3EKYJAeltkpP3Uc-244" target="OOJSj3EKYJAeltkpP3Uc-247">
          <mxGeometry relative="1" as="geometry" />
        </mxCell>
        <mxCell id="OOJSj3EKYJAeltkpP3Uc-254" value="" style="edgeStyle=orthogonalEdgeStyle;rounded=0;orthogonalLoop=1;jettySize=auto;html=1;" edge="1" parent="OOJSj3EKYJAeltkpP3Uc-234" source="OOJSj3EKYJAeltkpP3Uc-244" target="OOJSj3EKYJAeltkpP3Uc-252">
          <mxGeometry relative="1" as="geometry" />
        </mxCell>
        <mxCell id="OOJSj3EKYJAeltkpP3Uc-244" value="สินค้าประเภทนํ้า" style="rhombus;whiteSpace=wrap;html=1;" vertex="1" parent="OOJSj3EKYJAeltkpP3Uc-234">
          <mxGeometry x="298" y="370" width="120" height="110" as="geometry" />
        </mxCell>
        <mxCell id="OOJSj3EKYJAeltkpP3Uc-255" value="" style="edgeStyle=orthogonalEdgeStyle;rounded=0;orthogonalLoop=1;jettySize=auto;html=1;" edge="1" parent="OOJSj3EKYJAeltkpP3Uc-234" source="OOJSj3EKYJAeltkpP3Uc-247" target="OOJSj3EKYJAeltkpP3Uc-253">
          <mxGeometry relative="1" as="geometry" />
        </mxCell>
        <mxCell id="OOJSj3EKYJAeltkpP3Uc-669" style="edgeStyle=orthogonalEdgeStyle;rounded=0;orthogonalLoop=1;jettySize=auto;html=1;" edge="1" parent="OOJSj3EKYJAeltkpP3Uc-234" source="OOJSj3EKYJAeltkpP3Uc-247" target="OOJSj3EKYJAeltkpP3Uc-604">
          <mxGeometry relative="1" as="geometry" />
        </mxCell>
        <mxCell id="OOJSj3EKYJAeltkpP3Uc-247" value="สินค้าประเภทขนม" style="rhombus;whiteSpace=wrap;html=1;" vertex="1" parent="OOJSj3EKYJAeltkpP3Uc-234">
          <mxGeometry x="498" y="370" width="120" height="110" as="geometry" />
        </mxCell>
        <mxCell id="OOJSj3EKYJAeltkpP3Uc-269" value="" style="edgeStyle=orthogonalEdgeStyle;rounded=0;orthogonalLoop=1;jettySize=auto;html=1;" edge="1" parent="OOJSj3EKYJAeltkpP3Uc-234" source="OOJSj3EKYJAeltkpP3Uc-252" target="OOJSj3EKYJAeltkpP3Uc-260">
          <mxGeometry relative="1" as="geometry" />
        </mxCell>
        <mxCell id="OOJSj3EKYJAeltkpP3Uc-252" value="เช็ดจำนวนของสินค้าประเภทนํ้าแต่ละอย่าง" style="rounded=0;whiteSpace=wrap;html=1;" vertex="1" parent="OOJSj3EKYJAeltkpP3Uc-234">
          <mxGeometry x="298" y="525" width="120" height="60" as="geometry" />
        </mxCell>
        <mxCell id="OOJSj3EKYJAeltkpP3Uc-403" value="" style="edgeStyle=orthogonalEdgeStyle;rounded=0;orthogonalLoop=1;jettySize=auto;html=1;" edge="1" parent="OOJSj3EKYJAeltkpP3Uc-234" source="OOJSj3EKYJAeltkpP3Uc-253" target="OOJSj3EKYJAeltkpP3Uc-263">
          <mxGeometry relative="1" as="geometry" />
        </mxCell>
        <mxCell id="OOJSj3EKYJAeltkpP3Uc-253" value="เช็ดจำนวนของสินค้าประเภทขนมแต่ละอย่าง" style="rounded=0;whiteSpace=wrap;html=1;" vertex="1" parent="OOJSj3EKYJAeltkpP3Uc-234">
          <mxGeometry x="492" y="525" width="132" height="60" as="geometry" />
        </mxCell>
        <mxCell id="OOJSj3EKYJAeltkpP3Uc-270" value="" style="edgeStyle=orthogonalEdgeStyle;rounded=0;orthogonalLoop=1;jettySize=auto;html=1;" edge="1" parent="OOJSj3EKYJAeltkpP3Uc-234" source="OOJSj3EKYJAeltkpP3Uc-260" target="OOJSj3EKYJAeltkpP3Uc-264">
          <mxGeometry relative="1" as="geometry" />
        </mxCell>
        <mxCell id="OOJSj3EKYJAeltkpP3Uc-385" style="edgeStyle=orthogonalEdgeStyle;rounded=0;orthogonalLoop=1;jettySize=auto;html=1;exitX=0;exitY=0.5;exitDx=0;exitDy=0;entryX=1;entryY=0.5;entryDx=0;entryDy=0;" edge="1" parent="OOJSj3EKYJAeltkpP3Uc-234" source="OOJSj3EKYJAeltkpP3Uc-260" target="OOJSj3EKYJAeltkpP3Uc-379">
          <mxGeometry relative="1" as="geometry" />
        </mxCell>
        <mxCell id="OOJSj3EKYJAeltkpP3Uc-260" value="โค้กกระป๋องมีหรือไม่" style="rhombus;whiteSpace=wrap;html=1;" vertex="1" parent="OOJSj3EKYJAeltkpP3Uc-234">
          <mxGeometry x="298" y="640" width="120" height="110" as="geometry" />
        </mxCell>
        <mxCell id="OOJSj3EKYJAeltkpP3Uc-271" value="" style="edgeStyle=orthogonalEdgeStyle;rounded=0;orthogonalLoop=1;jettySize=auto;html=1;" edge="1" parent="OOJSj3EKYJAeltkpP3Uc-234" source="OOJSj3EKYJAeltkpP3Uc-264" target="OOJSj3EKYJAeltkpP3Uc-261">
          <mxGeometry relative="1" as="geometry" />
        </mxCell>
        <mxCell id="OOJSj3EKYJAeltkpP3Uc-393" value="" style="edgeStyle=orthogonalEdgeStyle;rounded=0;orthogonalLoop=1;jettySize=auto;html=1;" edge="1" parent="OOJSj3EKYJAeltkpP3Uc-234" source="OOJSj3EKYJAeltkpP3Uc-264" target="OOJSj3EKYJAeltkpP3Uc-380">
          <mxGeometry relative="1" as="geometry" />
        </mxCell>
        <mxCell id="OOJSj3EKYJAeltkpP3Uc-264" value="น้ำเขียว กระป๋องมีหรือไม่" style="rhombus;whiteSpace=wrap;html=1;" vertex="1" parent="OOJSj3EKYJAeltkpP3Uc-234">
          <mxGeometry x="283" y="789" width="150" height="110" as="geometry" />
        </mxCell>
        <mxCell id="OOJSj3EKYJAeltkpP3Uc-411" value="" style="edgeStyle=orthogonalEdgeStyle;rounded=0;orthogonalLoop=1;jettySize=auto;html=1;" edge="1" parent="OOJSj3EKYJAeltkpP3Uc-234" source="OOJSj3EKYJAeltkpP3Uc-263" target="OOJSj3EKYJAeltkpP3Uc-400">
          <mxGeometry relative="1" as="geometry" />
        </mxCell>
        <mxCell id="OOJSj3EKYJAeltkpP3Uc-607" value="" style="edgeStyle=orthogonalEdgeStyle;rounded=0;orthogonalLoop=1;jettySize=auto;html=1;" edge="1" parent="OOJSj3EKYJAeltkpP3Uc-234" source="OOJSj3EKYJAeltkpP3Uc-263" target="OOJSj3EKYJAeltkpP3Uc-604">
          <mxGeometry relative="1" as="geometry" />
        </mxCell>
        <mxCell id="OOJSj3EKYJAeltkpP3Uc-263" value="เมล็ดทานตะวันมีหรือไม่" style="rhombus;whiteSpace=wrap;html=1;" vertex="1" parent="OOJSj3EKYJAeltkpP3Uc-234">
          <mxGeometry x="493" y="640" width="130" height="110" as="geometry" />
        </mxCell>
        <mxCell id="OOJSj3EKYJAeltkpP3Uc-413" value="" style="edgeStyle=orthogonalEdgeStyle;rounded=0;orthogonalLoop=1;jettySize=auto;html=1;" edge="1" parent="OOJSj3EKYJAeltkpP3Uc-234" source="OOJSj3EKYJAeltkpP3Uc-262" target="OOJSj3EKYJAeltkpP3Uc-401">
          <mxGeometry relative="1" as="geometry" />
        </mxCell>
        <mxCell id="OOJSj3EKYJAeltkpP3Uc-608" value="" style="edgeStyle=orthogonalEdgeStyle;rounded=0;orthogonalLoop=1;jettySize=auto;html=1;" edge="1" parent="OOJSj3EKYJAeltkpP3Uc-234" source="OOJSj3EKYJAeltkpP3Uc-262" target="OOJSj3EKYJAeltkpP3Uc-603">
          <mxGeometry relative="1" as="geometry" />
        </mxCell>
        <mxCell id="OOJSj3EKYJAeltkpP3Uc-262" value="ถั่วแปบมีหรือไม่" style="rhombus;whiteSpace=wrap;html=1;" vertex="1" parent="OOJSj3EKYJAeltkpP3Uc-234">
          <mxGeometry x="498" y="890" width="120" height="110" as="geometry" />
        </mxCell>
        <mxCell id="OOJSj3EKYJAeltkpP3Uc-272" value="" style="edgeStyle=orthogonalEdgeStyle;rounded=0;orthogonalLoop=1;jettySize=auto;html=1;" edge="1" parent="OOJSj3EKYJAeltkpP3Uc-234" source="OOJSj3EKYJAeltkpP3Uc-261" target="OOJSj3EKYJAeltkpP3Uc-266">
          <mxGeometry relative="1" as="geometry" />
        </mxCell>
        <mxCell id="OOJSj3EKYJAeltkpP3Uc-394" value="" style="edgeStyle=orthogonalEdgeStyle;rounded=0;orthogonalLoop=1;jettySize=auto;html=1;" edge="1" parent="OOJSj3EKYJAeltkpP3Uc-234" source="OOJSj3EKYJAeltkpP3Uc-261" target="OOJSj3EKYJAeltkpP3Uc-381">
          <mxGeometry relative="1" as="geometry" />
        </mxCell>
        <mxCell id="OOJSj3EKYJAeltkpP3Uc-261" value="อเมริกาโน่มีหรือไม่" style="rhombus;whiteSpace=wrap;html=1;" vertex="1" parent="OOJSj3EKYJAeltkpP3Uc-234">
          <mxGeometry x="298" y="940" width="120" height="110" as="geometry" />
        </mxCell>
        <mxCell id="OOJSj3EKYJAeltkpP3Uc-609" value="" style="edgeStyle=orthogonalEdgeStyle;rounded=0;orthogonalLoop=1;jettySize=auto;html=1;" edge="1" parent="OOJSj3EKYJAeltkpP3Uc-234" source="OOJSj3EKYJAeltkpP3Uc-265" target="OOJSj3EKYJAeltkpP3Uc-410">
          <mxGeometry relative="1" as="geometry" />
        </mxCell>
        <mxCell id="OOJSj3EKYJAeltkpP3Uc-612" style="edgeStyle=orthogonalEdgeStyle;rounded=0;orthogonalLoop=1;jettySize=auto;html=1;entryX=0.5;entryY=0;entryDx=0;entryDy=0;" edge="1" parent="OOJSj3EKYJAeltkpP3Uc-234" source="OOJSj3EKYJAeltkpP3Uc-265" target="OOJSj3EKYJAeltkpP3Uc-402">
          <mxGeometry relative="1" as="geometry" />
        </mxCell>
        <mxCell id="OOJSj3EKYJAeltkpP3Uc-265" value="จิ้นส้มหมกมีหรือไม่&amp;nbsp;" style="rhombus;whiteSpace=wrap;html=1;" vertex="1" parent="OOJSj3EKYJAeltkpP3Uc-234">
          <mxGeometry x="498" y="1140" width="120" height="110" as="geometry" />
        </mxCell>
        <mxCell id="OOJSj3EKYJAeltkpP3Uc-395" value="" style="edgeStyle=orthogonalEdgeStyle;rounded=0;orthogonalLoop=1;jettySize=auto;html=1;" edge="1" parent="OOJSj3EKYJAeltkpP3Uc-234" source="OOJSj3EKYJAeltkpP3Uc-266" target="OOJSj3EKYJAeltkpP3Uc-382">
          <mxGeometry relative="1" as="geometry" />
        </mxCell>
        <mxCell id="OOJSj3EKYJAeltkpP3Uc-396" value="" style="edgeStyle=orthogonalEdgeStyle;rounded=0;orthogonalLoop=1;jettySize=auto;html=1;" edge="1" parent="OOJSj3EKYJAeltkpP3Uc-234" source="OOJSj3EKYJAeltkpP3Uc-266" target="OOJSj3EKYJAeltkpP3Uc-280">
          <mxGeometry relative="1" as="geometry" />
        </mxCell>
        <mxCell id="OOJSj3EKYJAeltkpP3Uc-266" value="ลาเต้หวานเจี๊ยบมีหรือไม่" style="rhombus;whiteSpace=wrap;html=1;" vertex="1" parent="OOJSj3EKYJAeltkpP3Uc-234">
          <mxGeometry x="288" y="1090" width="140" height="110" as="geometry" />
        </mxCell>
        <mxCell id="OOJSj3EKYJAeltkpP3Uc-683" style="edgeStyle=orthogonalEdgeStyle;rounded=0;orthogonalLoop=1;jettySize=auto;html=1;exitX=0.5;exitY=1;exitDx=0;exitDy=0;entryX=0;entryY=0.5;entryDx=0;entryDy=0;" edge="1" parent="OOJSj3EKYJAeltkpP3Uc-234" source="OOJSj3EKYJAeltkpP3Uc-280" target="OOJSj3EKYJAeltkpP3Uc-682">
          <mxGeometry relative="1" as="geometry" />
        </mxCell>
        <mxCell id="OOJSj3EKYJAeltkpP3Uc-280" value="คำนว&lt;i&gt;ณสินค้า&lt;/i&gt;ประเภทนํ้าแต่ละ&lt;i&gt;ทั้งหมดที่เหลือ&lt;/i&gt;" style="rounded=0;whiteSpace=wrap;html=1;" vertex="1" parent="OOJSj3EKYJAeltkpP3Uc-234">
          <mxGeometry x="284.5" y="1520" width="147" height="70" as="geometry" />
        </mxCell>
        <mxCell id="OOJSj3EKYJAeltkpP3Uc-386" style="edgeStyle=orthogonalEdgeStyle;rounded=0;orthogonalLoop=1;jettySize=auto;html=1;exitX=0.5;exitY=1;exitDx=0;exitDy=0;entryX=0.5;entryY=0;entryDx=0;entryDy=0;" edge="1" parent="OOJSj3EKYJAeltkpP3Uc-234" source="OOJSj3EKYJAeltkpP3Uc-379" target="OOJSj3EKYJAeltkpP3Uc-380">
          <mxGeometry relative="1" as="geometry" />
        </mxCell>
        <mxCell id="OOJSj3EKYJAeltkpP3Uc-379" value="" style="ellipse;whiteSpace=wrap;html=1;aspect=fixed;" vertex="1" parent="OOJSj3EKYJAeltkpP3Uc-234">
          <mxGeometry x="208" y="675" width="40" height="40" as="geometry" />
        </mxCell>
        <mxCell id="OOJSj3EKYJAeltkpP3Uc-387" value="" style="edgeStyle=orthogonalEdgeStyle;rounded=0;orthogonalLoop=1;jettySize=auto;html=1;" edge="1" parent="OOJSj3EKYJAeltkpP3Uc-234" source="OOJSj3EKYJAeltkpP3Uc-380" target="OOJSj3EKYJAeltkpP3Uc-381">
          <mxGeometry relative="1" as="geometry" />
        </mxCell>
        <mxCell id="OOJSj3EKYJAeltkpP3Uc-380" value="" style="ellipse;whiteSpace=wrap;html=1;aspect=fixed;" vertex="1" parent="OOJSj3EKYJAeltkpP3Uc-234">
          <mxGeometry x="208" y="824" width="40" height="40" as="geometry" />
        </mxCell>
        <mxCell id="OOJSj3EKYJAeltkpP3Uc-388" value="" style="edgeStyle=orthogonalEdgeStyle;rounded=0;orthogonalLoop=1;jettySize=auto;html=1;" edge="1" parent="OOJSj3EKYJAeltkpP3Uc-234" source="OOJSj3EKYJAeltkpP3Uc-381" target="OOJSj3EKYJAeltkpP3Uc-382">
          <mxGeometry relative="1" as="geometry" />
        </mxCell>
        <mxCell id="OOJSj3EKYJAeltkpP3Uc-381" value="" style="ellipse;whiteSpace=wrap;html=1;aspect=fixed;" vertex="1" parent="OOJSj3EKYJAeltkpP3Uc-234">
          <mxGeometry x="208" y="975" width="40" height="40" as="geometry" />
        </mxCell>
        <mxCell id="OOJSj3EKYJAeltkpP3Uc-695" style="edgeStyle=orthogonalEdgeStyle;rounded=0;orthogonalLoop=1;jettySize=auto;html=1;entryX=0.5;entryY=0;entryDx=0;entryDy=0;" edge="1" parent="OOJSj3EKYJAeltkpP3Uc-234" source="OOJSj3EKYJAeltkpP3Uc-382" target="OOJSj3EKYJAeltkpP3Uc-405">
          <mxGeometry relative="1" as="geometry" />
        </mxCell>
        <mxCell id="OOJSj3EKYJAeltkpP3Uc-382" value="" style="ellipse;whiteSpace=wrap;html=1;aspect=fixed;" vertex="1" parent="OOJSj3EKYJAeltkpP3Uc-234">
          <mxGeometry x="208" y="1125" width="40" height="40" as="geometry" />
        </mxCell>
        <mxCell id="OOJSj3EKYJAeltkpP3Uc-412" value="" style="edgeStyle=orthogonalEdgeStyle;rounded=0;orthogonalLoop=1;jettySize=auto;html=1;" edge="1" parent="OOJSj3EKYJAeltkpP3Uc-234" source="OOJSj3EKYJAeltkpP3Uc-400" target="OOJSj3EKYJAeltkpP3Uc-262">
          <mxGeometry relative="1" as="geometry" />
        </mxCell>
        <mxCell id="OOJSj3EKYJAeltkpP3Uc-400" value="ตรวจสอบวันหมดอายุของเมล็ดทานตะวัน" style="rounded=0;whiteSpace=wrap;html=1;" vertex="1" parent="OOJSj3EKYJAeltkpP3Uc-234">
          <mxGeometry x="498" y="789" width="120" height="60" as="geometry" />
        </mxCell>
        <mxCell id="OOJSj3EKYJAeltkpP3Uc-414" value="" style="edgeStyle=orthogonalEdgeStyle;rounded=0;orthogonalLoop=1;jettySize=auto;html=1;" edge="1" parent="OOJSj3EKYJAeltkpP3Uc-234" source="OOJSj3EKYJAeltkpP3Uc-401" target="OOJSj3EKYJAeltkpP3Uc-265">
          <mxGeometry relative="1" as="geometry" />
        </mxCell>
        <mxCell id="OOJSj3EKYJAeltkpP3Uc-401" value="ตรวจสอบวันหมดอายุของถั่วแปบ" style="rounded=0;whiteSpace=wrap;html=1;" vertex="1" parent="OOJSj3EKYJAeltkpP3Uc-234">
          <mxGeometry x="498" y="1040" width="120" height="60" as="geometry" />
        </mxCell>
        <mxCell id="OOJSj3EKYJAeltkpP3Uc-679" value="" style="edgeStyle=orthogonalEdgeStyle;rounded=0;orthogonalLoop=1;jettySize=auto;html=1;" edge="1" parent="OOJSj3EKYJAeltkpP3Uc-234" source="OOJSj3EKYJAeltkpP3Uc-402" target="OOJSj3EKYJAeltkpP3Uc-416">
          <mxGeometry relative="1" as="geometry" />
        </mxCell>
        <mxCell id="OOJSj3EKYJAeltkpP3Uc-402" value="ตรวจสอบวันหมดอายุของจิ้นส้มหมกมี" style="rounded=0;whiteSpace=wrap;html=1;" vertex="1" parent="OOJSj3EKYJAeltkpP3Uc-234">
          <mxGeometry x="498" y="1270" width="120" height="60" as="geometry" />
        </mxCell>
        <mxCell id="OOJSj3EKYJAeltkpP3Uc-605" value="" style="edgeStyle=orthogonalEdgeStyle;rounded=0;orthogonalLoop=1;jettySize=auto;html=1;" edge="1" parent="OOJSj3EKYJAeltkpP3Uc-234" source="OOJSj3EKYJAeltkpP3Uc-405" target="OOJSj3EKYJAeltkpP3Uc-426">
          <mxGeometry relative="1" as="geometry" />
        </mxCell>
        <mxCell id="OOJSj3EKYJAeltkpP3Uc-405" value="รับข้อมูลว่ามีสินค้าในเครื่อง" style="shape=parallelogram;perimeter=parallelogramPerimeter;whiteSpace=wrap;html=1;fixedSize=1;" vertex="1" parent="OOJSj3EKYJAeltkpP3Uc-234">
          <mxGeometry x="158" y="1750" width="140" height="70" as="geometry" />
        </mxCell>
        <mxCell id="OOJSj3EKYJAeltkpP3Uc-606" value="" style="edgeStyle=orthogonalEdgeStyle;rounded=0;orthogonalLoop=1;jettySize=auto;html=1;" edge="1" parent="OOJSj3EKYJAeltkpP3Uc-234" source="OOJSj3EKYJAeltkpP3Uc-406" target="OOJSj3EKYJAeltkpP3Uc-427">
          <mxGeometry relative="1" as="geometry" />
        </mxCell>
        <mxCell id="OOJSj3EKYJAeltkpP3Uc-406" value="รับข้อมูลว่าไม่มีสินค้าเครื่อง" style="shape=parallelogram;perimeter=parallelogramPerimeter;whiteSpace=wrap;html=1;fixedSize=1;" vertex="1" parent="OOJSj3EKYJAeltkpP3Uc-234">
          <mxGeometry x="648" y="1750" width="140" height="70" as="geometry" />
        </mxCell>
        <mxCell id="OOJSj3EKYJAeltkpP3Uc-688" style="edgeStyle=orthogonalEdgeStyle;rounded=0;orthogonalLoop=1;jettySize=auto;html=1;exitX=1;exitY=0.5;exitDx=0;exitDy=0;entryX=0;entryY=0.5;entryDx=0;entryDy=0;" edge="1" parent="OOJSj3EKYJAeltkpP3Uc-234" source="OOJSj3EKYJAeltkpP3Uc-407" target="OOJSj3EKYJAeltkpP3Uc-406">
          <mxGeometry relative="1" as="geometry" />
        </mxCell>
        <mxCell id="OOJSj3EKYJAeltkpP3Uc-689" style="edgeStyle=orthogonalEdgeStyle;rounded=0;orthogonalLoop=1;jettySize=auto;html=1;exitX=0;exitY=0.5;exitDx=0;exitDy=0;" edge="1" parent="OOJSj3EKYJAeltkpP3Uc-234" source="OOJSj3EKYJAeltkpP3Uc-407" target="OOJSj3EKYJAeltkpP3Uc-405">
          <mxGeometry relative="1" as="geometry" />
        </mxCell>
        <mxCell id="OOJSj3EKYJAeltkpP3Uc-407" value="มีสินค้าหรือไม่" style="rhombus;whiteSpace=wrap;html=1;" vertex="1" parent="OOJSj3EKYJAeltkpP3Uc-234">
          <mxGeometry x="405" y="1735" width="110" height="100" as="geometry" />
        </mxCell>
        <mxCell id="OOJSj3EKYJAeltkpP3Uc-670" style="edgeStyle=orthogonalEdgeStyle;rounded=0;orthogonalLoop=1;jettySize=auto;html=1;" edge="1" parent="OOJSj3EKYJAeltkpP3Uc-234" source="OOJSj3EKYJAeltkpP3Uc-691" target="OOJSj3EKYJAeltkpP3Uc-406">
          <mxGeometry relative="1" as="geometry" />
        </mxCell>
        <mxCell id="OOJSj3EKYJAeltkpP3Uc-410" value="" style="ellipse;whiteSpace=wrap;html=1;aspect=fixed;" vertex="1" parent="OOJSj3EKYJAeltkpP3Uc-234">
          <mxGeometry x="698" y="1175" width="40" height="40" as="geometry" />
        </mxCell>
        <mxCell id="OOJSj3EKYJAeltkpP3Uc-426" value="แสดงว่ามีสินค้าบนจอแสดงผล" style="shape=display;whiteSpace=wrap;html=1;" vertex="1" parent="OOJSj3EKYJAeltkpP3Uc-234">
          <mxGeometry x="148" y="1950" width="160" height="80" as="geometry" />
        </mxCell>
        <mxCell id="OOJSj3EKYJAeltkpP3Uc-690" style="edgeStyle=orthogonalEdgeStyle;rounded=0;orthogonalLoop=1;jettySize=auto;html=1;entryX=1;entryY=0.5;entryDx=0;entryDy=0;" edge="1" parent="OOJSj3EKYJAeltkpP3Uc-234" source="OOJSj3EKYJAeltkpP3Uc-427" target="OOJSj3EKYJAeltkpP3Uc-631">
          <mxGeometry relative="1" as="geometry" />
        </mxCell>
        <mxCell id="OOJSj3EKYJAeltkpP3Uc-427" value="แสดงว่าไม่มีสินค้าบนจอแสดงผล" style="shape=display;whiteSpace=wrap;html=1;" vertex="1" parent="OOJSj3EKYJAeltkpP3Uc-234">
          <mxGeometry x="633" y="1950" width="170" height="80" as="geometry" />
        </mxCell>
        <mxCell id="OOJSj3EKYJAeltkpP3Uc-610" style="edgeStyle=orthogonalEdgeStyle;rounded=0;orthogonalLoop=1;jettySize=auto;html=1;" edge="1" parent="OOJSj3EKYJAeltkpP3Uc-234" source="OOJSj3EKYJAeltkpP3Uc-604" target="OOJSj3EKYJAeltkpP3Uc-603">
          <mxGeometry relative="1" as="geometry" />
        </mxCell>
        <mxCell id="OOJSj3EKYJAeltkpP3Uc-604" value="" style="ellipse;whiteSpace=wrap;html=1;aspect=fixed;" vertex="1" parent="OOJSj3EKYJAeltkpP3Uc-234">
          <mxGeometry x="698" y="675" width="40" height="40" as="geometry" />
        </mxCell>
        <mxCell id="OOJSj3EKYJAeltkpP3Uc-611" style="edgeStyle=orthogonalEdgeStyle;rounded=0;orthogonalLoop=1;jettySize=auto;html=1;entryX=0.5;entryY=0;entryDx=0;entryDy=0;" edge="1" parent="OOJSj3EKYJAeltkpP3Uc-234" source="OOJSj3EKYJAeltkpP3Uc-603" target="OOJSj3EKYJAeltkpP3Uc-410">
          <mxGeometry relative="1" as="geometry" />
        </mxCell>
        <mxCell id="OOJSj3EKYJAeltkpP3Uc-603" value="" style="ellipse;whiteSpace=wrap;html=1;aspect=fixed;" vertex="1" parent="OOJSj3EKYJAeltkpP3Uc-234">
          <mxGeometry x="698" y="925" width="40" height="40" as="geometry" />
        </mxCell>
        <mxCell id="OOJSj3EKYJAeltkpP3Uc-680" value="" style="edgeStyle=orthogonalEdgeStyle;rounded=0;orthogonalLoop=1;jettySize=auto;html=1;" edge="1" parent="OOJSj3EKYJAeltkpP3Uc-234" source="OOJSj3EKYJAeltkpP3Uc-416" target="OOJSj3EKYJAeltkpP3Uc-678">
          <mxGeometry relative="1" as="geometry" />
        </mxCell>
        <mxCell id="OOJSj3EKYJAeltkpP3Uc-694" style="edgeStyle=orthogonalEdgeStyle;rounded=0;orthogonalLoop=1;jettySize=auto;html=1;entryX=0;entryY=0.5;entryDx=0;entryDy=0;" edge="1" parent="OOJSj3EKYJAeltkpP3Uc-234" source="OOJSj3EKYJAeltkpP3Uc-416" target="OOJSj3EKYJAeltkpP3Uc-691">
          <mxGeometry relative="1" as="geometry" />
        </mxCell>
        <mxCell id="OOJSj3EKYJAeltkpP3Uc-416" value="ตรวจสอบวันหมดอายุหรือไม่" style="rhombus;whiteSpace=wrap;html=1;" vertex="1" parent="OOJSj3EKYJAeltkpP3Uc-234">
          <mxGeometry x="493" y="1360" width="130" height="120" as="geometry" />
        </mxCell>
        <mxCell id="OOJSj3EKYJAeltkpP3Uc-630" value="&lt;span style=&quot;font-size: 15px;&quot;&gt;สิ้นสุด&lt;/span&gt;" style="ellipse;whiteSpace=wrap;html=1;" vertex="1" parent="OOJSj3EKYJAeltkpP3Uc-234">
          <mxGeometry x="400" y="2050" width="120" height="80" as="geometry" />
        </mxCell>
        <mxCell id="OOJSj3EKYJAeltkpP3Uc-635" style="edgeStyle=orthogonalEdgeStyle;rounded=0;orthogonalLoop=1;jettySize=auto;html=1;entryX=0.5;entryY=0;entryDx=0;entryDy=0;" edge="1" parent="OOJSj3EKYJAeltkpP3Uc-234" source="OOJSj3EKYJAeltkpP3Uc-631" target="OOJSj3EKYJAeltkpP3Uc-630">
          <mxGeometry relative="1" as="geometry" />
        </mxCell>
        <mxCell id="OOJSj3EKYJAeltkpP3Uc-631" value="" style="ellipse;whiteSpace=wrap;html=1;aspect=fixed;" vertex="1" parent="OOJSj3EKYJAeltkpP3Uc-234">
          <mxGeometry x="440" y="1970" width="40" height="40" as="geometry" />
        </mxCell>
        <mxCell id="OOJSj3EKYJAeltkpP3Uc-633" style="edgeStyle=orthogonalEdgeStyle;rounded=0;orthogonalLoop=1;jettySize=auto;html=1;entryX=0;entryY=0.5;entryDx=0;entryDy=0;" edge="1" parent="OOJSj3EKYJAeltkpP3Uc-234" source="OOJSj3EKYJAeltkpP3Uc-426" target="OOJSj3EKYJAeltkpP3Uc-631">
          <mxGeometry relative="1" as="geometry" />
        </mxCell>
        <mxCell id="OOJSj3EKYJAeltkpP3Uc-650" value="yes" style="text;html=1;align=center;verticalAlign=middle;whiteSpace=wrap;rounded=0;" vertex="1" parent="OOJSj3EKYJAeltkpP3Uc-234">
          <mxGeometry x="363" y="470" width="60" height="30" as="geometry" />
        </mxCell>
        <mxCell id="OOJSj3EKYJAeltkpP3Uc-651" value="yes" style="text;html=1;align=center;verticalAlign=middle;whiteSpace=wrap;rounded=0;" vertex="1" parent="OOJSj3EKYJAeltkpP3Uc-234">
          <mxGeometry x="358" y="740" width="60" height="30" as="geometry" />
        </mxCell>
        <mxCell id="OOJSj3EKYJAeltkpP3Uc-652" value="yes" style="text;html=1;align=center;verticalAlign=middle;whiteSpace=wrap;rounded=0;" vertex="1" parent="OOJSj3EKYJAeltkpP3Uc-234">
          <mxGeometry x="358" y="890" width="60" height="30" as="geometry" />
        </mxCell>
        <mxCell id="OOJSj3EKYJAeltkpP3Uc-653" value="yes" style="text;html=1;align=center;verticalAlign=middle;whiteSpace=wrap;rounded=0;" vertex="1" parent="OOJSj3EKYJAeltkpP3Uc-234">
          <mxGeometry x="358" y="1040" width="60" height="30" as="geometry" />
        </mxCell>
        <mxCell id="OOJSj3EKYJAeltkpP3Uc-654" value="yes" style="text;html=1;align=center;verticalAlign=middle;whiteSpace=wrap;rounded=0;" vertex="1" parent="OOJSj3EKYJAeltkpP3Uc-234">
          <mxGeometry x="358" y="1190" width="60" height="30" as="geometry" />
        </mxCell>
        <mxCell id="OOJSj3EKYJAeltkpP3Uc-656" value="yes" style="text;html=1;align=center;verticalAlign=middle;whiteSpace=wrap;rounded=0;" vertex="1" parent="OOJSj3EKYJAeltkpP3Uc-234">
          <mxGeometry x="498" y="740" width="60" height="30" as="geometry" />
        </mxCell>
        <mxCell id="OOJSj3EKYJAeltkpP3Uc-657" value="yes" style="text;html=1;align=center;verticalAlign=middle;whiteSpace=wrap;rounded=0;" vertex="1" parent="OOJSj3EKYJAeltkpP3Uc-234">
          <mxGeometry x="498" y="985" width="60" height="30" as="geometry" />
        </mxCell>
        <mxCell id="OOJSj3EKYJAeltkpP3Uc-658" value="yes" style="text;html=1;align=center;verticalAlign=middle;whiteSpace=wrap;rounded=0;" vertex="1" parent="OOJSj3EKYJAeltkpP3Uc-234">
          <mxGeometry x="493" y="1230" width="60" height="30" as="geometry" />
        </mxCell>
        <mxCell id="OOJSj3EKYJAeltkpP3Uc-660" value="no" style="text;html=1;align=center;verticalAlign=middle;whiteSpace=wrap;rounded=0;" vertex="1" parent="OOJSj3EKYJAeltkpP3Uc-234">
          <mxGeometry x="258" y="670" width="60" height="30" as="geometry" />
        </mxCell>
        <mxCell id="OOJSj3EKYJAeltkpP3Uc-661" value="no" style="text;html=1;align=center;verticalAlign=middle;whiteSpace=wrap;rounded=0;" vertex="1" parent="OOJSj3EKYJAeltkpP3Uc-234">
          <mxGeometry x="258" y="810" width="60" height="30" as="geometry" />
        </mxCell>
        <mxCell id="OOJSj3EKYJAeltkpP3Uc-662" value="no" style="text;html=1;align=center;verticalAlign=middle;whiteSpace=wrap;rounded=0;" vertex="1" parent="OOJSj3EKYJAeltkpP3Uc-234">
          <mxGeometry x="258" y="965" width="60" height="30" as="geometry" />
        </mxCell>
        <mxCell id="OOJSj3EKYJAeltkpP3Uc-663" value="no" style="text;html=1;align=center;verticalAlign=middle;whiteSpace=wrap;rounded=0;" vertex="1" parent="OOJSj3EKYJAeltkpP3Uc-234">
          <mxGeometry x="258" y="1110" width="60" height="30" as="geometry" />
        </mxCell>
        <mxCell id="OOJSj3EKYJAeltkpP3Uc-664" value="no" style="text;html=1;align=center;verticalAlign=middle;whiteSpace=wrap;rounded=0;" vertex="1" parent="OOJSj3EKYJAeltkpP3Uc-234">
          <mxGeometry x="600" y="1165" width="60" height="30" as="geometry" />
        </mxCell>
        <mxCell id="OOJSj3EKYJAeltkpP3Uc-665" value="no" style="text;html=1;align=center;verticalAlign=middle;whiteSpace=wrap;rounded=0;" vertex="1" parent="OOJSj3EKYJAeltkpP3Uc-234">
          <mxGeometry x="610" y="910" width="60" height="30" as="geometry" />
        </mxCell>
        <mxCell id="OOJSj3EKYJAeltkpP3Uc-666" value="no" style="text;html=1;align=center;verticalAlign=middle;whiteSpace=wrap;rounded=0;" vertex="1" parent="OOJSj3EKYJAeltkpP3Uc-234">
          <mxGeometry x="618" y="660" width="60" height="30" as="geometry" />
        </mxCell>
        <mxCell id="OOJSj3EKYJAeltkpP3Uc-667" value="no" style="text;html=1;align=center;verticalAlign=middle;whiteSpace=wrap;rounded=0;" vertex="1" parent="OOJSj3EKYJAeltkpP3Uc-234">
          <mxGeometry x="610" y="1390" width="60" height="30" as="geometry" />
        </mxCell>
        <mxCell id="OOJSj3EKYJAeltkpP3Uc-668" value="yes" style="text;html=1;align=center;verticalAlign=middle;whiteSpace=wrap;rounded=0;" vertex="1" parent="OOJSj3EKYJAeltkpP3Uc-234">
          <mxGeometry x="553" y="1475" width="60" height="30" as="geometry" />
        </mxCell>
        <mxCell id="OOJSj3EKYJAeltkpP3Uc-673" value="yes" style="text;html=1;align=center;verticalAlign=middle;whiteSpace=wrap;rounded=0;" vertex="1" parent="OOJSj3EKYJAeltkpP3Uc-234">
          <mxGeometry x="563" y="470" width="60" height="30" as="geometry" />
        </mxCell>
        <mxCell id="OOJSj3EKYJAeltkpP3Uc-674" value="no" style="text;html=1;align=center;verticalAlign=middle;whiteSpace=wrap;rounded=0;" vertex="1" parent="OOJSj3EKYJAeltkpP3Uc-234">
          <mxGeometry x="408" y="400" width="60" height="30" as="geometry" />
        </mxCell>
        <mxCell id="OOJSj3EKYJAeltkpP3Uc-677" value="no" style="text;html=1;align=center;verticalAlign=middle;whiteSpace=wrap;rounded=0;" vertex="1" parent="OOJSj3EKYJAeltkpP3Uc-234">
          <mxGeometry x="600" y="400" width="60" height="30" as="geometry" />
        </mxCell>
        <mxCell id="OOJSj3EKYJAeltkpP3Uc-684" style="edgeStyle=orthogonalEdgeStyle;rounded=0;orthogonalLoop=1;jettySize=auto;html=1;entryX=1;entryY=0.5;entryDx=0;entryDy=0;" edge="1" parent="OOJSj3EKYJAeltkpP3Uc-234" source="OOJSj3EKYJAeltkpP3Uc-678" target="OOJSj3EKYJAeltkpP3Uc-682">
          <mxGeometry relative="1" as="geometry">
            <Array as="points">
              <mxPoint x="558" y="1650" />
            </Array>
          </mxGeometry>
        </mxCell>
        <mxCell id="OOJSj3EKYJAeltkpP3Uc-678" value="คำนว&lt;i&gt;ณสินค้า&lt;/i&gt;ประเภทขนม&lt;i&gt;ทั้งหมดที่เหลือ&lt;/i&gt;" style="rounded=0;whiteSpace=wrap;html=1;" vertex="1" parent="OOJSj3EKYJAeltkpP3Uc-234">
          <mxGeometry x="488" y="1520" width="140" height="70" as="geometry" />
        </mxCell>
        <mxCell id="OOJSj3EKYJAeltkpP3Uc-686" value="" style="edgeStyle=orthogonalEdgeStyle;rounded=0;orthogonalLoop=1;jettySize=auto;html=1;" edge="1" parent="OOJSj3EKYJAeltkpP3Uc-234" source="OOJSj3EKYJAeltkpP3Uc-682" target="OOJSj3EKYJAeltkpP3Uc-407">
          <mxGeometry relative="1" as="geometry" />
        </mxCell>
        <mxCell id="OOJSj3EKYJAeltkpP3Uc-682" value="" style="ellipse;whiteSpace=wrap;html=1;aspect=fixed;" vertex="1" parent="OOJSj3EKYJAeltkpP3Uc-234">
          <mxGeometry x="440" y="1630" width="40" height="40" as="geometry" />
        </mxCell>
        <mxCell id="OOJSj3EKYJAeltkpP3Uc-691" value="" style="ellipse;whiteSpace=wrap;html=1;aspect=fixed;" vertex="1" parent="OOJSj3EKYJAeltkpP3Uc-234">
          <mxGeometry x="698" y="1400" width="40" height="40" as="geometry" />
        </mxCell>
        <mxCell id="OOJSj3EKYJAeltkpP3Uc-692" value="" style="edgeStyle=orthogonalEdgeStyle;rounded=0;orthogonalLoop=1;jettySize=auto;html=1;" edge="1" parent="OOJSj3EKYJAeltkpP3Uc-234" source="OOJSj3EKYJAeltkpP3Uc-410" target="OOJSj3EKYJAeltkpP3Uc-691">
          <mxGeometry relative="1" as="geometry">
            <mxPoint x="908" y="1565" as="sourcePoint" />
            <mxPoint x="908" y="2100" as="targetPoint" />
          </mxGeometry>
        </mxCell>
        <mxCell id="OOJSj3EKYJAeltkpP3Uc-800" value="yes" style="text;html=1;align=center;verticalAlign=middle;whiteSpace=wrap;rounded=0;" vertex="1" parent="OOJSj3EKYJAeltkpP3Uc-234">
          <mxGeometry x="358" y="1794" width="60" height="30" as="geometry" />
        </mxCell>
        <mxCell id="OOJSj3EKYJAeltkpP3Uc-802" value="no" style="text;html=1;align=center;verticalAlign=middle;whiteSpace=wrap;rounded=0;" vertex="1" parent="OOJSj3EKYJAeltkpP3Uc-234">
          <mxGeometry x="505" y="1793" width="60" height="30" as="geometry" />
        </mxCell>
        <mxCell id="OOJSj3EKYJAeltkpP3Uc-642" value="&lt;span style=&quot;font-weight: 400;&quot;&gt;ฟังชั่น&lt;/span&gt;&lt;span style=&quot;font-weight: 400;&quot;&gt;เลือกประเภทการชำระเงิน&lt;/span&gt;" style="swimlane;whiteSpace=wrap;html=1;" vertex="1" parent="1">
          <mxGeometry x="1210" y="590" width="810" height="1230" as="geometry" />
        </mxCell>
        <mxCell id="OOJSj3EKYJAeltkpP3Uc-84" style="edgeStyle=orthogonalEdgeStyle;rounded=0;orthogonalLoop=1;jettySize=auto;html=1;exitX=0.5;exitY=1;exitDx=0;exitDy=0;entryX=0.5;entryY=0;entryDx=0;entryDy=0;" edge="1" parent="OOJSj3EKYJAeltkpP3Uc-642" source="OOJSj3EKYJAeltkpP3Uc-85" target="OOJSj3EKYJAeltkpP3Uc-88">
          <mxGeometry relative="1" as="geometry" />
        </mxCell>
        <mxCell id="OOJSj3EKYJAeltkpP3Uc-85" value="เลือกประเภทการชำระ" style="rounded=0;whiteSpace=wrap;html=1;" vertex="1" parent="OOJSj3EKYJAeltkpP3Uc-642">
          <mxGeometry x="420" y="150" width="120" height="60" as="geometry" />
        </mxCell>
        <mxCell id="OOJSj3EKYJAeltkpP3Uc-86" style="edgeStyle=orthogonalEdgeStyle;rounded=0;orthogonalLoop=1;jettySize=auto;html=1;exitX=0.5;exitY=1;exitDx=0;exitDy=0;entryX=0.5;entryY=0;entryDx=0;entryDy=0;" edge="1" parent="OOJSj3EKYJAeltkpP3Uc-642" source="OOJSj3EKYJAeltkpP3Uc-88" target="OOJSj3EKYJAeltkpP3Uc-97">
          <mxGeometry relative="1" as="geometry" />
        </mxCell>
        <mxCell id="OOJSj3EKYJAeltkpP3Uc-87" style="edgeStyle=orthogonalEdgeStyle;rounded=0;orthogonalLoop=1;jettySize=auto;html=1;exitX=1;exitY=0.5;exitDx=0;exitDy=0;entryX=0;entryY=0.5;entryDx=0;entryDy=0;" edge="1" parent="OOJSj3EKYJAeltkpP3Uc-642" source="OOJSj3EKYJAeltkpP3Uc-88" target="OOJSj3EKYJAeltkpP3Uc-91">
          <mxGeometry relative="1" as="geometry" />
        </mxCell>
        <mxCell id="OOJSj3EKYJAeltkpP3Uc-88" value="ชำระด้วยเหรียญ/แบงค์" style="rhombus;whiteSpace=wrap;html=1;" vertex="1" parent="OOJSj3EKYJAeltkpP3Uc-642">
          <mxGeometry x="420" y="240" width="120" height="110" as="geometry" />
        </mxCell>
        <mxCell id="OOJSj3EKYJAeltkpP3Uc-89" style="edgeStyle=orthogonalEdgeStyle;rounded=0;orthogonalLoop=1;jettySize=auto;html=1;exitX=0.5;exitY=0;exitDx=0;exitDy=0;entryX=1;entryY=0.5;entryDx=0;entryDy=0;" edge="1" parent="OOJSj3EKYJAeltkpP3Uc-642" source="OOJSj3EKYJAeltkpP3Uc-91" target="OOJSj3EKYJAeltkpP3Uc-85">
          <mxGeometry relative="1" as="geometry" />
        </mxCell>
        <mxCell id="OOJSj3EKYJAeltkpP3Uc-90" style="edgeStyle=orthogonalEdgeStyle;rounded=0;orthogonalLoop=1;jettySize=auto;html=1;entryX=0.5;entryY=0;entryDx=0;entryDy=0;" edge="1" parent="OOJSj3EKYJAeltkpP3Uc-642" source="OOJSj3EKYJAeltkpP3Uc-91" target="OOJSj3EKYJAeltkpP3Uc-99">
          <mxGeometry relative="1" as="geometry" />
        </mxCell>
        <mxCell id="OOJSj3EKYJAeltkpP3Uc-91" value="โอนเงิน" style="rhombus;whiteSpace=wrap;html=1;" vertex="1" parent="OOJSj3EKYJAeltkpP3Uc-642">
          <mxGeometry x="625.1300000000001" y="250" width="100" height="90" as="geometry" />
        </mxCell>
        <mxCell id="OOJSj3EKYJAeltkpP3Uc-92" style="edgeStyle=orthogonalEdgeStyle;rounded=0;orthogonalLoop=1;jettySize=auto;html=1;exitX=0.5;exitY=1;exitDx=0;exitDy=0;entryX=0.5;entryY=0;entryDx=0;entryDy=0;" edge="1" parent="OOJSj3EKYJAeltkpP3Uc-642" source="OOJSj3EKYJAeltkpP3Uc-93">
          <mxGeometry relative="1" as="geometry">
            <mxPoint x="480" y="560" as="targetPoint" />
          </mxGeometry>
        </mxCell>
        <mxCell id="OOJSj3EKYJAeltkpP3Uc-93" value="&lt;span style=&quot;font-size: 12px;&quot;&gt;ตรวจสอบจำนวนเงิน&lt;/span&gt;" style="rounded=0;whiteSpace=wrap;html=1;" vertex="1" parent="OOJSj3EKYJAeltkpP3Uc-642">
          <mxGeometry x="420" y="460" width="120" height="60" as="geometry" />
        </mxCell>
        <mxCell id="OOJSj3EKYJAeltkpP3Uc-94" style="edgeStyle=orthogonalEdgeStyle;rounded=0;orthogonalLoop=1;jettySize=auto;html=1;entryX=1;entryY=0.5;entryDx=0;entryDy=0;" edge="1" parent="OOJSj3EKYJAeltkpP3Uc-642" source="OOJSj3EKYJAeltkpP3Uc-95" target="OOJSj3EKYJAeltkpP3Uc-103">
          <mxGeometry relative="1" as="geometry">
            <Array as="points">
              <mxPoint x="675.1300000000001" y="790" />
            </Array>
          </mxGeometry>
        </mxCell>
        <mxCell id="OOJSj3EKYJAeltkpP3Uc-95" value="โอนเงินสําเร็จ" style="rounded=0;whiteSpace=wrap;html=1;" vertex="1" parent="OOJSj3EKYJAeltkpP3Uc-642">
          <mxGeometry x="615.1300000000001" y="460" width="120" height="60" as="geometry" />
        </mxCell>
        <mxCell id="OOJSj3EKYJAeltkpP3Uc-96" style="edgeStyle=orthogonalEdgeStyle;rounded=0;orthogonalLoop=1;jettySize=auto;html=1;entryX=0.5;entryY=0;entryDx=0;entryDy=0;" edge="1" parent="OOJSj3EKYJAeltkpP3Uc-642" source="OOJSj3EKYJAeltkpP3Uc-97" target="OOJSj3EKYJAeltkpP3Uc-93">
          <mxGeometry relative="1" as="geometry" />
        </mxCell>
        <mxCell id="OOJSj3EKYJAeltkpP3Uc-97" value="จ่ายเงิน" style="shape=parallelogram;perimeter=parallelogramPerimeter;whiteSpace=wrap;html=1;fixedSize=1;" vertex="1" parent="OOJSj3EKYJAeltkpP3Uc-642">
          <mxGeometry x="420" y="380" width="120" height="60" as="geometry" />
        </mxCell>
        <mxCell id="OOJSj3EKYJAeltkpP3Uc-98" style="edgeStyle=orthogonalEdgeStyle;rounded=0;orthogonalLoop=1;jettySize=auto;html=1;entryX=0.5;entryY=0;entryDx=0;entryDy=0;" edge="1" parent="OOJSj3EKYJAeltkpP3Uc-642" source="OOJSj3EKYJAeltkpP3Uc-99" target="OOJSj3EKYJAeltkpP3Uc-95">
          <mxGeometry relative="1" as="geometry" />
        </mxCell>
        <mxCell id="OOJSj3EKYJAeltkpP3Uc-99" value="จ่ายเงิน" style="shape=parallelogram;perimeter=parallelogramPerimeter;whiteSpace=wrap;html=1;fixedSize=1;" vertex="1" parent="OOJSj3EKYJAeltkpP3Uc-642">
          <mxGeometry x="615.1300000000001" y="360" width="120" height="60" as="geometry" />
        </mxCell>
        <mxCell id="OOJSj3EKYJAeltkpP3Uc-100" style="edgeStyle=orthogonalEdgeStyle;rounded=0;orthogonalLoop=1;jettySize=auto;html=1;exitX=0;exitY=0.5;exitDx=0;exitDy=0;entryX=1;entryY=0.5;entryDx=0;entryDy=0;" edge="1" parent="OOJSj3EKYJAeltkpP3Uc-642" source="OOJSj3EKYJAeltkpP3Uc-101" target="OOJSj3EKYJAeltkpP3Uc-110">
          <mxGeometry relative="1" as="geometry">
            <mxPoint x="410.1300000000001" y="620" as="targetPoint" />
          </mxGeometry>
        </mxCell>
        <mxCell id="OOJSj3EKYJAeltkpP3Uc-101" value="จำนวนเงินเกินหรือไม่" style="rhombus;whiteSpace=wrap;html=1;" vertex="1" parent="OOJSj3EKYJAeltkpP3Uc-642">
          <mxGeometry x="420" y="560" width="120" height="120" as="geometry" />
        </mxCell>
        <mxCell id="OOJSj3EKYJAeltkpP3Uc-102" style="edgeStyle=orthogonalEdgeStyle;rounded=0;orthogonalLoop=1;jettySize=auto;html=1;" edge="1" parent="OOJSj3EKYJAeltkpP3Uc-642" source="OOJSj3EKYJAeltkpP3Uc-103" target="OOJSj3EKYJAeltkpP3Uc-119">
          <mxGeometry relative="1" as="geometry" />
        </mxCell>
        <mxCell id="OOJSj3EKYJAeltkpP3Uc-103" value="" style="ellipse;whiteSpace=wrap;html=1;aspect=fixed;" vertex="1" parent="OOJSj3EKYJAeltkpP3Uc-642">
          <mxGeometry x="555.1300000000001" y="770" width="40" height="40" as="geometry" />
        </mxCell>
        <mxCell id="OOJSj3EKYJAeltkpP3Uc-104" style="edgeStyle=orthogonalEdgeStyle;rounded=0;orthogonalLoop=1;jettySize=auto;html=1;exitX=1;exitY=0.5;exitDx=0;exitDy=0;entryX=0;entryY=0.5;entryDx=0;entryDy=0;entryPerimeter=0;" edge="1" parent="OOJSj3EKYJAeltkpP3Uc-642" source="OOJSj3EKYJAeltkpP3Uc-105" target="OOJSj3EKYJAeltkpP3Uc-119">
          <mxGeometry relative="1" as="geometry" />
        </mxCell>
        <mxCell id="OOJSj3EKYJAeltkpP3Uc-105" value="ทอนเงินให้ลูกค้าตามจำนวน" style="rounded=0;whiteSpace=wrap;html=1;" vertex="1" parent="OOJSj3EKYJAeltkpP3Uc-642">
          <mxGeometry x="240.1300000000001" y="957.5" width="110" height="60" as="geometry" />
        </mxCell>
        <mxCell id="OOJSj3EKYJAeltkpP3Uc-108" style="edgeStyle=orthogonalEdgeStyle;rounded=0;orthogonalLoop=1;jettySize=auto;html=1;entryX=0;entryY=0.5;entryDx=0;entryDy=0;exitX=0.5;exitY=1;exitDx=0;exitDy=0;" edge="1" parent="OOJSj3EKYJAeltkpP3Uc-642" source="OOJSj3EKYJAeltkpP3Uc-101" target="OOJSj3EKYJAeltkpP3Uc-103">
          <mxGeometry relative="1" as="geometry">
            <mxPoint x="620.1300000000001" y="732" as="targetPoint" />
            <Array as="points">
              <mxPoint x="480.1300000000001" y="790" />
            </Array>
          </mxGeometry>
        </mxCell>
        <mxCell id="OOJSj3EKYJAeltkpP3Uc-109" value="" style="edgeStyle=orthogonalEdgeStyle;rounded=0;orthogonalLoop=1;jettySize=auto;html=1;" edge="1" parent="OOJSj3EKYJAeltkpP3Uc-642" source="OOJSj3EKYJAeltkpP3Uc-110" target="OOJSj3EKYJAeltkpP3Uc-112">
          <mxGeometry relative="1" as="geometry" />
        </mxCell>
        <mxCell id="OOJSj3EKYJAeltkpP3Uc-110" value="&lt;span style=&quot;font-size: 12px;&quot;&gt;คำนวณเงินที่เกินมา&lt;/span&gt;" style="rounded=0;whiteSpace=wrap;html=1;" vertex="1" parent="OOJSj3EKYJAeltkpP3Uc-642">
          <mxGeometry x="235.1300000000001" y="590" width="120" height="60" as="geometry" />
        </mxCell>
        <mxCell id="OOJSj3EKYJAeltkpP3Uc-111" style="edgeStyle=orthogonalEdgeStyle;rounded=0;orthogonalLoop=1;jettySize=auto;html=1;exitX=0.5;exitY=1;exitDx=0;exitDy=0;entryX=0.5;entryY=0;entryDx=0;entryDy=0;" edge="1" parent="OOJSj3EKYJAeltkpP3Uc-642" source="OOJSj3EKYJAeltkpP3Uc-112" target="OOJSj3EKYJAeltkpP3Uc-114">
          <mxGeometry relative="1" as="geometry" />
        </mxCell>
        <mxCell id="OOJSj3EKYJAeltkpP3Uc-112" value="&lt;span style=&quot;font-size: 12px;&quot;&gt;คำนวณ&lt;/span&gt;เหรียญ/แบงค์&lt;span style=&quot;font-size: 12px;&quot;&gt;ในเครื่อง&lt;/span&gt;" style="rounded=0;whiteSpace=wrap;html=1;" vertex="1" parent="OOJSj3EKYJAeltkpP3Uc-642">
          <mxGeometry x="235.1300000000001" y="700" width="120" height="60" as="geometry" />
        </mxCell>
        <mxCell id="OOJSj3EKYJAeltkpP3Uc-113" value="" style="edgeStyle=orthogonalEdgeStyle;rounded=0;orthogonalLoop=1;jettySize=auto;html=1;" edge="1" parent="OOJSj3EKYJAeltkpP3Uc-642" source="OOJSj3EKYJAeltkpP3Uc-114" target="OOJSj3EKYJAeltkpP3Uc-105">
          <mxGeometry relative="1" as="geometry" />
        </mxCell>
        <mxCell id="OOJSj3EKYJAeltkpP3Uc-114" value="&lt;span style=&quot;font-size: 12px;&quot;&gt;มี&lt;/span&gt;เหรียญ/แบงค์ในเครื่องหรือไม่" style="rhombus;whiteSpace=wrap;html=1;" vertex="1" parent="OOJSj3EKYJAeltkpP3Uc-642">
          <mxGeometry x="200.1300000000001" y="795" width="190" height="115" as="geometry" />
        </mxCell>
        <mxCell id="OOJSj3EKYJAeltkpP3Uc-115" style="edgeStyle=orthogonalEdgeStyle;rounded=0;orthogonalLoop=1;jettySize=auto;html=1;exitX=0;exitY=0;exitDx=72.5;exitDy=0;exitPerimeter=0;entryX=0;entryY=0.5;entryDx=0;entryDy=0;" edge="1" parent="OOJSj3EKYJAeltkpP3Uc-642" source="OOJSj3EKYJAeltkpP3Uc-116" target="OOJSj3EKYJAeltkpP3Uc-85">
          <mxGeometry relative="1" as="geometry" />
        </mxCell>
        <mxCell id="OOJSj3EKYJAeltkpP3Uc-116" value="แสดงข้อความไม่สามารถทอนเงิน" style="shape=display;whiteSpace=wrap;html=1;" vertex="1" parent="OOJSj3EKYJAeltkpP3Uc-642">
          <mxGeometry x="50.88000000000011" y="680" width="140" height="60" as="geometry" />
        </mxCell>
        <mxCell id="OOJSj3EKYJAeltkpP3Uc-117" style="edgeStyle=orthogonalEdgeStyle;rounded=0;orthogonalLoop=1;jettySize=auto;html=1;exitX=0;exitY=0.5;exitDx=0;exitDy=0;entryX=0;entryY=0;entryDx=72.5;entryDy=60;entryPerimeter=0;" edge="1" parent="OOJSj3EKYJAeltkpP3Uc-642" source="OOJSj3EKYJAeltkpP3Uc-114" target="OOJSj3EKYJAeltkpP3Uc-116">
          <mxGeometry relative="1" as="geometry" />
        </mxCell>
        <mxCell id="OOJSj3EKYJAeltkpP3Uc-119" value="แสดงสรุปสินค้าได้ยอดเงินทั้งหมด" style="shape=display;whiteSpace=wrap;html=1;" vertex="1" parent="OOJSj3EKYJAeltkpP3Uc-642">
          <mxGeometry x="492.8800000000001" y="940" width="164.5" height="95" as="geometry" />
        </mxCell>
        <mxCell id="OOJSj3EKYJAeltkpP3Uc-122" value="yes" style="text;html=1;align=center;verticalAlign=middle;whiteSpace=wrap;rounded=0;" vertex="1" parent="OOJSj3EKYJAeltkpP3Uc-642">
          <mxGeometry x="479.1300000000001" y="340" width="60" height="30" as="geometry" />
        </mxCell>
        <mxCell id="OOJSj3EKYJAeltkpP3Uc-123" value="yes" style="text;html=1;align=center;verticalAlign=middle;whiteSpace=wrap;rounded=0;" vertex="1" parent="OOJSj3EKYJAeltkpP3Uc-642">
          <mxGeometry x="685.1300000000001" y="320" width="60" height="30" as="geometry" />
        </mxCell>
        <mxCell id="OOJSj3EKYJAeltkpP3Uc-124" value="no" style="text;html=1;align=center;verticalAlign=middle;whiteSpace=wrap;rounded=0;" vertex="1" parent="OOJSj3EKYJAeltkpP3Uc-642">
          <mxGeometry x="499.1300000000001" y="760" width="60" height="30" as="geometry" />
        </mxCell>
        <mxCell id="OOJSj3EKYJAeltkpP3Uc-125" value="yes" style="text;html=1;align=center;verticalAlign=middle;whiteSpace=wrap;rounded=0;" vertex="1" parent="OOJSj3EKYJAeltkpP3Uc-642">
          <mxGeometry x="595.1300000000001" y="760" width="60" height="30" as="geometry" />
        </mxCell>
        <mxCell id="OOJSj3EKYJAeltkpP3Uc-126" value="yes" style="text;html=1;align=center;verticalAlign=middle;whiteSpace=wrap;rounded=0;" vertex="1" parent="OOJSj3EKYJAeltkpP3Uc-642">
          <mxGeometry x="295.1300000000001" y="900" width="60" height="30" as="geometry" />
        </mxCell>
        <mxCell id="OOJSj3EKYJAeltkpP3Uc-127" value="yes" style="text;html=1;align=center;verticalAlign=middle;whiteSpace=wrap;rounded=0;" vertex="1" parent="OOJSj3EKYJAeltkpP3Uc-642">
          <mxGeometry x="380.0100000000002" y="580" width="60" height="30" as="geometry" />
        </mxCell>
        <mxCell id="OOJSj3EKYJAeltkpP3Uc-128" value="no" style="text;html=1;align=center;verticalAlign=middle;whiteSpace=wrap;rounded=0;" vertex="1" parent="OOJSj3EKYJAeltkpP3Uc-642">
          <mxGeometry x="165.1300000000001" y="810" width="60" height="30" as="geometry" />
        </mxCell>
        <mxCell id="OOJSj3EKYJAeltkpP3Uc-129" value="no" style="text;html=1;align=center;verticalAlign=middle;whiteSpace=wrap;rounded=0;" vertex="1" parent="OOJSj3EKYJAeltkpP3Uc-642">
          <mxGeometry x="544.2600000000002" y="260" width="60" height="30" as="geometry" />
        </mxCell>
        <mxCell id="OOJSj3EKYJAeltkpP3Uc-644" value="" style="edgeStyle=orthogonalEdgeStyle;rounded=0;orthogonalLoop=1;jettySize=auto;html=1;" edge="1" parent="OOJSj3EKYJAeltkpP3Uc-642" source="OOJSj3EKYJAeltkpP3Uc-643" target="OOJSj3EKYJAeltkpP3Uc-85">
          <mxGeometry relative="1" as="geometry" />
        </mxCell>
        <mxCell id="OOJSj3EKYJAeltkpP3Uc-643" value="&lt;font style=&quot;font-size: 15px;&quot;&gt;เริ่มต้น&lt;/font&gt;" style="strokeWidth=1;html=1;shape=mxgraph.flowchart.terminator;whiteSpace=wrap;" vertex="1" parent="OOJSj3EKYJAeltkpP3Uc-642">
          <mxGeometry x="415" y="40" width="130" height="60" as="geometry" />
        </mxCell>
        <mxCell id="OOJSj3EKYJAeltkpP3Uc-646" value="&lt;span style=&quot;font-size: 15px;&quot;&gt;สิ้นสุด&lt;/span&gt;" style="strokeWidth=1;html=1;shape=mxgraph.flowchart.terminator;whiteSpace=wrap;" vertex="1" parent="OOJSj3EKYJAeltkpP3Uc-642">
          <mxGeometry x="509.26" y="1120" width="130" height="60" as="geometry" />
        </mxCell>
        <mxCell id="OOJSj3EKYJAeltkpP3Uc-647" value="" style="edgeStyle=orthogonalEdgeStyle;rounded=0;orthogonalLoop=1;jettySize=auto;html=1;" edge="1" parent="OOJSj3EKYJAeltkpP3Uc-642" source="OOJSj3EKYJAeltkpP3Uc-119" target="OOJSj3EKYJAeltkpP3Uc-646">
          <mxGeometry relative="1" as="geometry" />
        </mxCell>
      </root>
    </mxGraphModel>
  </diagram>
</mxfile>
